<svg width="1920" height="7238" viewBox="0 0 1920 7238" fill="none" xmlns="http://www.w3.org/2000/svg">
<path d="M267.53 1767.3C266.864 1767.05 266.124 1767.07 265.479 1767.37C264.832 1767.67 264.336 1768.23 264.105 1768.9C263.873 1769.57 263.925 1770.31 264.25 1770.95C264.574 1771.58 265.142 1772.06 265.824 1772.26L266.664 1772.55C266.935 1772.64 267.218 1772.69 267.504 1772.68C268.796 1772.69 269.904 1771.76 270.114 1770.48C270.322 1769.21 269.572 1767.97 268.343 1767.57L267.53 1767.3Z" fill="#624D41"/>
<path d="M199.306 1671.61C198.834 1670.24 197.343 1669.51 195.974 1669.98L195.186 1670.22C194.505 1670.43 193.937 1670.9 193.612 1671.53C193.288 1672.17 193.235 1672.91 193.467 1673.58C193.699 1674.26 194.194 1674.81 194.841 1675.11C195.486 1675.41 196.228 1675.43 196.892 1675.18L197.732 1674.89V1674.89C199.052 1674.4 199.748 1672.95 199.306 1671.61Z" fill="#624D41"/>
<path d="M182.041 1777.33C182.739 1777.81 183.628 1777.93 184.428 1777.64L232.526 1760.46L257.664 1769.46H257.665C258.33 1769.74 259.086 1769.74 259.751 1769.45C260.415 1769.16 260.931 1768.61 261.174 1767.93C261.418 1767.24 261.368 1766.49 261.036 1765.85C260.705 1765.2 260.12 1764.72 259.422 1764.52L235.124 1755.84V1663.45L278.838 1679.19V1748.41L278.025 1748.25C277.354 1748.07 276.636 1748.16 276.03 1748.5C275.426 1748.85 274.982 1749.42 274.798 1750.09C274.772 1750.33 274.772 1750.56 274.798 1750.8C274.75 1752 275.529 1753.09 276.688 1753.42C277.396 1753.61 278.105 1753.76 278.813 1753.89V1771.55L276.189 1770.64V1770.64C275.522 1770.35 274.768 1770.35 274.102 1770.64C273.437 1770.93 272.922 1771.48 272.678 1772.17C272.434 1772.85 272.485 1773.6 272.817 1774.25C273.149 1774.89 273.733 1775.37 274.43 1775.57L280.544 1777.75C281.088 1777.94 281.681 1777.94 282.224 1777.75L331.213 1760.25C332.252 1759.87 332.944 1758.88 332.944 1757.78V1751.56C332.944 1750.11 331.769 1748.94 330.32 1748.94C328.871 1748.94 327.696 1750.11 327.696 1751.56V1755.92L283.955 1771.66V1679.09L327.882 1663.84V1734.69C327.882 1736.14 329.057 1737.31 330.506 1737.31C331.955 1737.31 333.13 1736.14 333.13 1734.69V1660.14C333.126 1659.29 332.713 1658.5 332.021 1658.01C331.327 1657.52 330.44 1657.39 329.64 1657.67L281.515 1674.44L233.417 1657.25H231.659L203.976 1667.15C202.706 1667.69 202.078 1669.13 202.543 1670.44C203.007 1671.74 204.404 1672.46 205.734 1672.08L229.901 1663.45V1686.72C229.356 1686.3 228.668 1686.11 227.985 1686.2C227.075 1686.32 226.131 1686.5 225.152 1686.75C223.942 1687.03 223.098 1688.13 223.131 1689.37C223.105 1689.56 223.105 1689.76 223.131 1689.95C223.417 1691.16 224.512 1692 225.755 1691.97C225.965 1691.99 226.176 1691.99 226.385 1691.97C227.147 1691.79 227.918 1691.65 228.694 1691.55C229.137 1691.47 229.553 1691.28 229.901 1691V1755.84L186.187 1771.45V1679.09L188.942 1678.09C189.639 1677.89 190.224 1677.41 190.556 1676.77C190.888 1676.12 190.938 1675.37 190.694 1674.68C190.451 1674 189.935 1673.45 189.27 1673.16C188.606 1672.87 187.85 1672.87 187.184 1673.16L182.67 1674.76C181.622 1675.12 180.917 1676.11 180.913 1677.22V1775.18C180.914 1776.03 181.336 1776.84 182.041 1777.33L182.041 1777.33Z" fill="#624D41"/>
<path d="M330.505 1740.04C329.056 1740.04 327.881 1741.22 327.881 1742.66V1743.5C327.881 1744.95 329.056 1746.13 330.505 1746.13C331.954 1746.13 333.129 1744.95 333.129 1743.5V1742.66C333.129 1741.97 332.852 1741.3 332.36 1740.81C331.868 1740.32 331.201 1740.04 330.505 1740.04Z" fill="#624D41"/>
<path d="M198.412 1739.59C198.412 1742.15 199.428 1744.6 201.233 1746.4C203.039 1748.21 205.489 1749.22 208.042 1749.22C210.596 1749.22 213.046 1748.21 214.852 1746.4C216.658 1744.6 217.673 1742.15 217.673 1739.59C217.673 1737.04 216.658 1734.59 214.852 1732.78C213.046 1730.98 210.596 1729.96 208.042 1729.96C205.491 1729.97 203.045 1730.99 201.241 1732.79C199.436 1734.6 198.419 1737.04 198.412 1739.59ZM208.042 1735.21C209.204 1735.21 210.32 1735.67 211.141 1736.49C211.963 1737.32 212.425 1738.43 212.425 1739.59C212.425 1740.76 211.963 1741.87 211.141 1742.69C210.32 1743.51 209.204 1743.98 208.042 1743.98C206.88 1743.98 205.766 1743.51 204.944 1742.69C204.123 1741.87 203.66 1740.76 203.66 1739.59C203.66 1738.43 204.123 1737.32 204.944 1736.49C205.766 1735.67 206.88 1735.21 208.042 1735.21Z" fill="#624D41"/>
<path d="M313.579 1683.34C312.555 1682.32 310.902 1682.32 309.879 1683.34L306.022 1687.27L302.139 1683.34C301.097 1682.45 299.545 1682.51 298.577 1683.47C297.607 1684.44 297.547 1686 298.438 1687.04L302.296 1690.89L298.438 1694.75C297.883 1695.23 297.552 1695.91 297.523 1696.64C297.495 1697.37 297.773 1698.08 298.29 1698.6C298.807 1699.12 299.516 1699.39 300.247 1699.37C300.977 1699.34 301.663 1699.01 302.139 1698.45L305.996 1694.59L309.854 1698.45H309.852C310.894 1699.34 312.446 1699.28 313.415 1698.31C314.385 1697.34 314.444 1695.79 313.553 1694.75L309.696 1690.89L313.553 1687.04C314.577 1686.02 314.589 1684.37 313.579 1683.34Z" fill="#624D41"/>
<path d="M255.93 1722.7C256.04 1724.06 257.183 1725.12 258.554 1725.11H258.764C259.457 1725.05 260.099 1724.72 260.549 1724.19C261.005 1723.66 261.232 1722.97 261.178 1722.28C261.178 1721.44 261.178 1720.57 260.968 1719.65C260.921 1718.96 260.598 1718.31 260.072 1717.85C259.545 1717.39 258.857 1717.16 258.16 1717.21C256.795 1717.32 255.743 1718.47 255.746 1719.84V1720.07V1721.46L255.93 1722.7Z" fill="#624D41"/>
<path d="M254.566 1709.92C254.82 1711.16 255.923 1712.04 257.19 1712.02C257.364 1712.04 257.541 1712.04 257.714 1712.02C258.389 1711.88 258.983 1711.49 259.368 1710.91C259.762 1710.33 259.904 1709.61 259.762 1708.92C259.552 1707.95 259.343 1707.06 259.106 1706.3C258.922 1705.62 258.478 1705.05 257.873 1704.71C257.267 1704.37 256.55 1704.28 255.878 1704.46C254.758 1704.77 253.978 1705.79 253.962 1706.95C253.921 1707.19 253.921 1707.43 253.962 1707.66C254.172 1708.24 254.409 1709 254.566 1709.92Z" fill="#624D41"/>
<path d="M291.592 1746.99C290.902 1747.34 290.192 1747.65 289.466 1747.91C288.436 1748.28 287.746 1749.26 287.734 1750.35C287.732 1750.67 287.785 1750.98 287.891 1751.27C288.267 1752.31 289.254 1753 290.358 1753C290.663 1753 290.964 1752.95 291.251 1752.84C292.147 1752.51 293.023 1752.13 293.875 1751.69C294.497 1751.38 294.968 1750.83 295.187 1750.17C295.399 1749.51 295.343 1748.79 295.029 1748.17C294.386 1746.92 292.869 1746.4 291.592 1746.99Z" fill="#624D41"/>
<path d="M254.016 1695.83C253.386 1695.07 252.704 1694.33 252.022 1693.65C251.269 1692.91 250.147 1692.7 249.173 1693.1C248.201 1693.51 247.565 1694.46 247.562 1695.51C247.557 1696.24 247.851 1696.93 248.375 1697.43C248.924 1697.95 249.432 1698.51 249.896 1699.11C250.396 1699.72 251.15 1700.08 251.943 1700.08C252.957 1700.08 253.881 1699.5 254.319 1698.59C254.756 1697.67 254.629 1696.59 253.99 1695.8L254.016 1695.83Z" fill="#624D41"/>
<path d="M269.943 1743.9C269.34 1743.37 268.762 1742.85 268.212 1742.3H268.211C267.188 1741.28 265.535 1741.28 264.511 1742.3C263.997 1742.8 263.712 1743.49 263.724 1744.21C263.733 1744.88 263.996 1745.52 264.458 1746C265.129 1746.69 265.838 1747.35 266.585 1747.96C267.685 1748.8 269.246 1748.64 270.153 1747.6C271.114 1746.52 271.021 1744.86 269.943 1743.9Z" fill="#624D41"/>
<path d="M299.359 1738.94C299.03 1739.64 298.652 1740.31 298.231 1740.96C297.967 1741.38 297.83 1741.87 297.837 1742.37C297.83 1743.28 298.286 1744.12 299.044 1744.6C299.462 1744.86 299.943 1745 300.435 1745C301.336 1745.01 302.178 1744.55 302.666 1743.79C303.182 1742.94 303.656 1742.07 304.082 1741.17C304.72 1739.86 304.179 1738.29 302.875 1737.65C301.57 1737.01 299.997 1737.55 299.359 1738.86L299.359 1738.94Z" fill="#624D41"/>
<path d="M258.294 1736.23C258.666 1737.27 259.64 1737.96 260.734 1737.97C261.049 1737.96 261.36 1737.9 261.652 1737.78C263.004 1737.28 263.695 1735.78 263.201 1734.42C262.938 1733.69 262.702 1732.93 262.519 1732.19C262.17 1730.79 260.749 1729.93 259.343 1730.28C258.144 1730.57 257.313 1731.67 257.349 1732.9C257.324 1733.12 257.324 1733.34 257.349 1733.56C257.613 1734.47 257.928 1735.36 258.294 1736.23Z" fill="#624D41"/>
<path d="M304.266 1719.55C304.961 1719.55 305.629 1719.27 306.121 1718.78C306.613 1718.29 306.89 1717.62 306.89 1716.92V1714.3C306.89 1712.85 305.715 1711.67 304.266 1711.67C302.817 1711.67 301.642 1712.85 301.642 1714.3V1716.92C301.642 1717.62 301.918 1718.29 302.41 1718.78C302.902 1719.27 303.57 1719.55 304.266 1719.55Z" fill="#624D41"/>
<path d="M214.448 1698.16C215.157 1698.17 215.839 1697.88 216.337 1697.38C216.867 1696.83 217.437 1696.32 218.043 1695.85C218.576 1695.41 218.922 1694.78 219.013 1694.1C219.089 1693.4 218.88 1692.7 218.436 1692.15C217.534 1691.03 215.894 1690.84 214.763 1691.73C213.994 1692.35 213.267 1693.02 212.584 1693.73C212.112 1694.21 211.84 1694.84 211.824 1695.51C211.812 1696.23 212.097 1696.93 212.611 1697.43C213.104 1697.9 213.762 1698.17 214.448 1698.16Z" fill="#624D41"/>
<path d="M307.125 1730.33C307.125 1729.41 307.309 1728.47 307.362 1727.55H307.361C307.363 1726.16 306.282 1725.01 304.895 1724.93C303.454 1724.85 302.224 1725.95 302.14 1727.39C302.14 1728.13 302.14 1728.89 301.93 1729.7V1729.86V1730.17H301.929C301.919 1731.51 302.913 1732.64 304.239 1732.8H304.554H304.553C305.923 1732.77 307.043 1731.7 307.125 1730.33Z" fill="#624D41"/>
<path d="M210.09 1702.1C208.685 1701.77 207.278 1702.64 206.941 1704.04C206.731 1704.93 206.573 1705.9 206.416 1706.9V1707.24V1707.24C206.406 1708.57 207.385 1709.69 208.699 1709.86H209.04C210.375 1709.87 211.505 1708.88 211.664 1707.56C211.762 1706.78 211.903 1706.01 212.085 1705.25C212.242 1704.56 212.119 1703.84 211.744 1703.25C211.368 1702.66 210.773 1702.25 210.09 1702.1Z" fill="#624D41"/>
<path d="M211.69 1717.45C211.565 1716.01 210.298 1714.94 208.857 1715.06C208.163 1715.12 207.521 1715.45 207.072 1715.98C206.618 1716.52 206.4 1717.22 206.468 1717.92C206.468 1718.84 206.625 1719.76 206.731 1720.54C206.867 1721.89 208.003 1722.91 209.355 1722.91H209.617C210.305 1722.84 210.936 1722.5 211.375 1721.96C211.83 1721.42 212.047 1720.72 211.979 1720.02V1719.6C211.822 1718.89 211.743 1718.18 211.69 1717.45Z" fill="#624D41"/>
<path d="M242.157 1687.67C241.298 1687.35 240.423 1687.07 239.533 1686.85C238.127 1686.51 236.707 1687.36 236.358 1688.77C236.33 1688.99 236.33 1689.21 236.358 1689.43C236.322 1690.66 237.152 1691.75 238.352 1692.05C239.125 1692.23 239.887 1692.46 240.635 1692.73C240.922 1692.77 241.214 1692.77 241.501 1692.73C242.605 1692.73 243.591 1692.04 243.968 1691C244.237 1690.35 244.237 1689.63 243.968 1688.98C243.589 1688.29 242.926 1687.81 242.157 1687.67Z" fill="#624D41"/>
<path d="M170.624 2897.99H343.419C345.254 2897.99 346.742 2896.5 346.742 2894.67C346.742 2892.83 345.254 2891.34 343.419 2891.34H173.947V2761.22C173.947 2759.38 172.459 2757.89 170.624 2757.89C168.789 2757.89 167.301 2759.38 167.301 2761.22V2894.67C167.301 2895.55 167.651 2896.39 168.274 2897.02C168.897 2897.64 169.743 2897.99 170.624 2897.99Z" fill="#D8D8D8"/>
<path d="M206.079 2868.15C206.962 2868.16 207.811 2867.81 208.438 2867.19L234.058 2841.57L245.755 2853.26C247.052 2854.55 249.145 2854.55 250.442 2853.26L292.976 2810.73L299.29 2817.04C300.129 2817.88 301.352 2818.2 302.494 2817.89C303.638 2817.58 304.531 2816.69 304.839 2815.55L311.153 2791.92V2791.92C311.45 2790.78 311.12 2789.57 310.287 2788.73C309.453 2787.9 308.239 2787.57 307.099 2787.87L283.605 2794.18C282.461 2794.49 281.568 2795.38 281.26 2796.53C280.952 2797.67 281.276 2798.89 282.11 2799.73L288.423 2806.04L248.114 2846.19L236.417 2834.59C235.121 2833.3 233.027 2833.3 231.732 2834.59L203.852 2862.47C202.893 2863.42 202.606 2864.85 203.123 2866.1C203.641 2867.35 204.861 2868.16 206.21 2868.15L206.079 2868.15ZM303.244 2795.78L299.921 2808.27L290.75 2799.1L303.244 2795.78Z" fill="#D8D8D8"/>
<path d="M234.091 2831.26C237.004 2831.27 239.8 2830.12 241.863 2828.07C243.927 2826.01 245.087 2823.22 245.09 2820.31C245.093 2817.4 243.937 2814.6 241.878 2812.54C239.819 2810.48 237.026 2809.33 234.114 2809.33C231.202 2809.34 228.41 2810.5 226.355 2812.56C224.301 2814.62 223.149 2817.42 223.158 2820.33C223.167 2823.23 224.323 2826 226.37 2828.05C228.419 2830.1 231.194 2831.25 234.091 2831.26ZM234.091 2816.01C235.842 2816 237.426 2817.04 238.106 2818.65C238.785 2820.27 238.423 2822.13 237.19 2823.37C235.958 2824.62 234.097 2824.99 232.479 2824.33C230.86 2823.66 229.804 2822.08 229.804 2820.33C229.769 2819.17 230.203 2818.04 231.01 2817.2C231.817 2816.36 232.928 2815.89 234.091 2815.88L234.091 2816.01Z" fill="#D8D8D8"/>
<path d="M330.121 3909.75L328.7 3911.12L318.882 3901.31C317.875 3900.44 316.376 3900.5 315.438 3901.44C314.501 3902.38 314.444 3903.88 315.305 3904.88L324.794 3914.37L324.793 3914.37C323.116 3915.61 321.343 3916.71 319.492 3917.67L310.993 3909.2V3909.2C309.986 3908.33 308.485 3908.39 307.549 3909.33C306.611 3910.27 306.553 3911.77 307.415 3912.77L314.494 3919.85C312.266 3920.63 309.973 3921.22 307.644 3921.6L303.102 3917.09C302.096 3916.22 300.596 3916.28 299.658 3917.22C298.721 3918.16 298.664 3919.66 299.526 3920.66L301.175 3922.31H295.289C293.208 3922.31 291.839 3922.31 290.215 3922.11C290.215 3920.38 290.037 3918.63 290.012 3916.91C289.987 3915.18 290.012 3912.87 290.012 3911.02L291.661 3912.67C292.659 3913.34 293.993 3913.22 294.853 3912.38C295.713 3911.54 295.864 3910.21 295.213 3909.2L290.697 3904.68V3904.68C291.08 3902.35 291.666 3900.06 292.447 3897.83L299.526 3904.91C300.532 3905.77 302.033 3905.71 302.97 3904.78C303.906 3903.84 303.965 3902.34 303.102 3901.33L294.604 3892.81C295.562 3890.96 296.665 3889.18 297.902 3887.51L307.39 3896.99V3896.99C308.397 3897.86 309.898 3897.8 310.835 3896.86C311.771 3895.92 311.83 3894.42 310.967 3893.42L301.175 3883.6L302.545 3882.18C303.407 3881.17 303.35 3879.67 302.412 3878.73C301.475 3877.8 299.975 3877.74 298.968 3878.6C297.724 3879.84 296.66 3880.99 295.772 3882.1C293.157 3885.18 290.964 3888.59 289.252 3892.25C287.401 3896.27 286.153 3900.55 285.548 3904.93C284.954 3908.96 284.708 3913.02 284.812 3917.09C284.812 3918.71 284.812 3920.33 284.99 3921.96L280.246 3921.7C275.9 3921.47 271.543 3921.54 267.205 3921.91C262.568 3922.29 258.012 3923.35 253.683 3925.05C249.892 3926.58 246.332 3928.63 243.104 3931.14C241.227 3932.55 239.455 3934.09 237.802 3935.76C236.559 3937 235.494 3938.14 234.606 3939.26L234.605 3939.26C231.99 3942.34 229.797 3945.75 228.086 3949.41C226.235 3953.43 224.987 3957.7 224.382 3962.09C223.702 3967.34 223.515 3972.64 223.823 3977.92C223.823 3979.52 223.975 3981.09 224.077 3982.69C222.453 3982.69 220.83 3982.54 219.206 3982.51L219.207 3982.51C216.159 3982.43 213.109 3982.53 210.074 3982.82C205.436 3983.2 200.88 3984.26 196.551 3985.96C192.76 3987.49 189.199 3989.54 185.973 3992.05C184.104 3993.46 182.34 3995.01 180.695 3996.67C180.158 3997.13 179.838 3997.79 179.81 3998.5C179.783 3999.21 180.052 3999.89 180.552 4000.39C181.052 4000.89 181.737 4001.16 182.444 4001.13C183.15 4001.11 183.813 4000.78 184.273 4000.25C185.312 3999.21 186.302 3998.32 187.317 3997.48L197.034 4007.2V4007.2C198.04 4008.06 199.541 4008 200.478 4007.07C201.414 4006.13 201.473 4004.63 200.61 4003.62L191.199 3994.67C192.964 3993.5 194.823 3992.48 196.755 3991.62L204.722 3999.59H204.72C205.727 4000.45 207.228 4000.39 208.165 3999.46C209.102 3998.52 209.16 3997.02 208.298 3996.01L202.107 3989.69C204.467 3989.03 206.877 3988.56 209.313 3988.3L212.713 3991.7L212.712 3991.7C213.7 3992.69 215.307 3992.7 216.302 3991.71C217.297 3990.72 217.302 3989.12 216.315 3988.12L216.061 3987.87H219.105C220.83 3987.87 222.555 3987.87 224.179 3988.07C224.179 3989.8 224.357 3991.55 224.382 3993.27V3996.26L224.128 3996.01C223.122 3995.15 221.622 3995.21 220.684 3996.14C219.748 3997.08 219.69 3998.58 220.552 3999.59L223.952 4002.99L223.951 4002.99C223.687 4005.43 223.22 4007.83 222.555 4010.19L216.315 4003.88C215.308 4003.01 213.808 4003.07 212.871 4004.01C211.934 4004.95 211.875 4006.45 212.738 4007.45L220.705 4015.42L220.704 4015.42C219.841 4017.4 218.814 4019.3 217.635 4021.1L208.426 4011.89C207.419 4011.03 205.918 4011.09 204.981 4012.03C204.044 4012.96 203.986 4014.46 204.848 4015.47L214.564 4025.19C213.727 4026.18 212.839 4027.19 211.798 4028.23H211.799C211.263 4028.69 210.942 4029.35 210.914 4030.06C210.887 4030.77 211.156 4031.45 211.656 4031.95C212.155 4032.45 212.841 4032.72 213.547 4032.69C214.254 4032.67 214.916 4032.35 215.376 4031.81C217.033 4030.17 218.568 4028.42 219.969 4026.56C222.48 4023.32 224.529 4019.75 226.057 4015.95C227.793 4011.59 228.87 4007 229.253 4002.33C229.523 3999.29 229.607 3996.24 229.507 3993.2C229.507 3991.57 229.507 3989.95 229.329 3988.33L234.074 3988.58C239.356 3988.89 244.656 3988.7 249.905 3988.02C254.335 3987.43 258.653 3986.18 262.717 3984.32C266.375 3982.61 269.788 3980.41 272.864 3977.8C273.981 3976.88 275.148 3975.82 276.391 3974.57H276.39C278.046 3972.94 279.581 3971.18 280.983 3969.32C283.494 3966.09 285.543 3962.52 287.071 3958.72C288.85 3954.33 289.961 3949.71 290.369 3944.99C290.738 3940.66 290.806 3936.3 290.572 3931.95C290.572 3930.36 290.42 3928.78 290.319 3927.18C291.943 3927.18 293.566 3927.34 295.19 3927.36C299.175 3927.47 303.163 3927.25 307.113 3926.7C311.552 3926.11 315.878 3924.86 319.95 3923C323.608 3921.29 327.021 3919.09 330.098 3916.48C331.214 3915.57 332.381 3914.5 333.625 3913.26V3913.26C334.486 3912.25 334.429 3910.75 333.491 3909.81C332.554 3908.88 331.054 3908.82 330.047 3909.68L330.121 3909.75ZM234.325 3983.48L229.251 3983.2C229.251 3981.48 229.048 3979.75 228.972 3978.13C228.972 3975.36 228.795 3971.99 228.972 3968.46L232.575 3972.06L232.574 3972.06C233.581 3972.92 235.082 3972.87 236.018 3971.93C236.956 3970.99 237.014 3969.49 236.152 3968.48L229.658 3961.99H229.657C229.999 3959.66 230.542 3957.37 231.281 3955.14L240.312 3964.17C241.319 3965.03 242.819 3964.98 243.756 3964.04C244.694 3963.1 244.751 3961.6 243.89 3960.6L233.462 3950.07C234.452 3948.2 235.589 3946.42 236.862 3944.74L248.329 3956.21C249.351 3956.91 250.733 3956.77 251.595 3955.88C252.457 3954.99 252.545 3953.6 251.805 3952.6L240.008 3940.81L241.379 3939.39C242.418 3938.35 243.408 3937.46 244.423 3936.62L256.118 3948.29C256.578 3948.83 257.24 3949.15 257.947 3949.18C258.653 3949.2 259.339 3948.93 259.839 3948.43C260.338 3947.94 260.606 3947.25 260.579 3946.54C260.552 3945.84 260.232 3945.17 259.695 3944.71L248.507 3933.53V3933.53C250.273 3932.36 252.13 3931.34 254.062 3930.48L264.008 3940.43C265.014 3941.29 266.515 3941.23 267.452 3940.29C268.388 3939.36 268.447 3937.86 267.584 3936.85L259.314 3928.58V3928.58C261.675 3927.93 264.085 3927.48 266.52 3927.23L271.899 3932.61H271.897C272.904 3933.47 274.405 3933.42 275.342 3932.48C276.279 3931.54 276.337 3930.04 275.475 3929.04L273.243 3926.8H280.017L285.091 3927.08C285.091 3928.81 285.293 3930.53 285.369 3932.16C285.445 3933.78 285.521 3936.47 285.369 3938.93L283.137 3936.7C282.13 3935.84 280.629 3935.89 279.693 3936.83C278.755 3937.77 278.697 3939.27 279.559 3940.27L285.065 3945.78C284.799 3948.22 284.333 3950.63 283.669 3952.98L275.399 3944.71C274.392 3943.85 272.892 3943.91 271.955 3944.85C271.017 3945.78 270.96 3947.28 271.821 3948.29L281.767 3958.24C280.897 3960.17 279.871 3962.03 278.697 3963.79L267.585 3952.6C267.125 3952.07 266.462 3951.75 265.755 3951.72C265.05 3951.69 264.364 3951.96 263.864 3952.46C263.365 3952.96 263.096 3953.65 263.123 3954.35C263.151 3955.06 263.471 3955.72 264.008 3956.18L275.678 3967.83C274.841 3968.82 273.953 3969.83 272.912 3970.87L271.492 3972.24L259.695 3960.49C258.688 3959.63 257.187 3959.69 256.251 3960.63C255.314 3961.56 255.255 3963.06 256.118 3964.07L267.56 3975.44C265.878 3976.71 264.096 3977.85 262.232 3978.84L251.779 3968.38C250.772 3967.52 249.273 3967.58 248.335 3968.52C247.399 3969.45 247.341 3970.95 248.203 3971.96L257.158 3981.02C254.93 3981.8 252.638 3982.38 250.308 3982.77L243.814 3976.27V3976.27C242.807 3975.41 241.307 3975.47 240.37 3976.41C239.432 3977.34 239.374 3978.84 240.236 3979.85L243.839 3983.45C240.414 3983.66 237.065 3983.61 234.326 3983.48L234.325 3983.48Z" fill="#D8D8D8"/>
<path d="M303.124 5020.58H303.795C304.881 5020.65 305.947 5020.26 306.739 5019.52C307.53 5018.77 307.979 5017.73 307.977 5016.64C307.977 5015.59 307.561 5014.59 306.822 5013.85C306.081 5013.11 305.079 5012.7 304.033 5012.7H302.415C300.237 5012.79 298.55 5014.64 298.649 5016.82C298.747 5019 300.592 5020.68 302.77 5020.58H303.124Z" fill="#00A424"/>
<path d="M249.253 5149.63H248.622C246.443 5149.73 244.758 5151.57 244.855 5153.75C244.953 5155.93 246.798 5157.62 248.976 5157.52H249.253C249.946 5157.45 250.633 5157.31 251.304 5157.12C253.035 5156.31 253.929 5154.36 253.424 5152.51C252.918 5150.67 251.16 5149.45 249.253 5149.63Z" fill="#00A424"/>
<path d="M174.516 5179.01C176.055 5180.54 178.539 5180.54 180.076 5179.01L202.636 5156.45C211.147 5158.51 219.871 5159.55 228.627 5159.57C231.256 5159.57 233.886 5159.48 236.515 5159.29C238.693 5159.15 240.344 5157.27 240.202 5155.09C240.061 5152.91 238.181 5151.26 236.003 5151.4C227.124 5152.01 218.204 5151.48 209.458 5149.83L226.379 5132.91H288.458C280.065 5138.79 270.839 5143.37 261.087 5146.51C260.057 5146.81 259.19 5147.51 258.687 5148.46C258.183 5149.4 258.086 5150.51 258.419 5151.53C258.752 5152.55 259.484 5153.39 260.449 5153.86C261.414 5154.32 262.527 5154.38 263.532 5154.01C277.878 5149.36 291.124 5141.83 302.459 5131.88C304.352 5130.22 306.403 5128.53 308.06 5126.68H308.058C315.936 5118.8 322.584 5109.79 327.778 5099.94C333.127 5089.9 336.878 5079.1 338.9 5067.91C341.879 5051.69 341.3 5035.02 337.205 5019.05C336.842 5017.68 335.773 5016.61 334.405 5016.25C328.479 5014.71 322.438 5013.65 316.34 5013.09C314.163 5012.88 312.229 5014.48 312.023 5016.66C311.816 5018.84 313.414 5020.77 315.592 5020.98C318.983 5021.29 322.297 5021.77 325.531 5022.36L290.036 5057.85V5021.73H291.061C293.239 5021.44 294.776 5019.45 294.492 5017.27C294.209 5015.09 292.214 5013.56 290.036 5013.84C288.458 5014.04 286.96 5014.31 285.383 5014.59L285.381 5014.59C274.194 5016.61 263.388 5020.36 253.357 5025.71C243.505 5030.91 234.492 5037.55 226.616 5045.43C224.723 5047.32 222.987 5049.37 221.253 5051.19V5051.19C209.566 5064.67 201.261 5080.74 197.03 5098.08C192.797 5115.41 192.76 5133.5 196.919 5150.85L174.359 5173.41C173.634 5174.17 173.241 5175.19 173.271 5176.24C173.301 5177.3 173.75 5178.29 174.518 5179.01L174.516 5179.01ZM302.534 5121.16C301.192 5122.5 299.852 5123.76 298.393 5125.1H234.068L257.14 5102.07H317.643C313.373 5109 308.302 5115.41 302.536 5121.16H302.534ZM322.018 5094.18L265.027 5094.18L288.06 5071.15H330.299C328.477 5079.13 325.697 5086.86 322.017 5094.18L322.018 5094.18ZM331.839 5063.26L295.829 5063.26L331.324 5027.76C333.474 5039.48 333.634 5051.48 331.798 5063.26L331.839 5063.26ZM282.38 5065.58L259.346 5088.5V5031.51C266.66 5027.82 274.395 5025.02 282.38 5023.19V5065.58ZM251.458 5035.93V5096.39L228.348 5119.58V5055.25C229.649 5053.79 230.99 5052.37 232.292 5050.99C238.065 5045.22 244.498 5040.15 251.458 5035.89V5035.93ZM220.46 5065.27V5127.47L203.698 5144.23C201.111 5130.61 201.261 5116.62 204.14 5103.06C207.017 5089.51 212.564 5076.66 220.46 5065.27L220.46 5065.27Z" fill="#00A424"/>
<path d="M203.573 6192.43C203.931 6192.48 204.29 6192.48 204.648 6192.43L206.619 6191.89C208.966 6191.12 210.239 6188.58 209.46 6186.23C208.681 6183.88 206.147 6182.61 203.797 6183.39L202.544 6183.75C200.072 6184.05 198.31 6186.29 198.606 6188.76C198.901 6191.23 201.147 6193 203.619 6192.7L203.573 6192.43Z" fill="#00A424"/>
<path d="M319.103 6293.73C319.98 6293.72 320.836 6293.46 321.565 6292.97C322.055 6292.63 322.518 6292.25 322.952 6291.85L320.222 6288.31L316.955 6285.31L316.641 6285.63C315.005 6286.73 314.281 6288.77 314.857 6290.65C315.434 6292.54 317.177 6293.82 319.147 6293.82L319.103 6293.73Z" fill="#00A424"/>
<path d="M340.906 6240.55C340.229 6234.56 337.471 6229 333.117 6224.84C331.043 6222.61 329.348 6220.05 328.103 6217.28C327.43 6214.16 327.278 6210.95 327.656 6207.79C328.617 6202.14 327.638 6196.33 324.88 6191.31C320.923 6186.99 315.596 6184.16 309.797 6183.3C306.65 6182.72 303.625 6181.62 300.845 6180.03C298.547 6177.95 296.611 6175.5 295.114 6172.78C292.506 6167.48 288.14 6163.24 282.761 6160.79C277.132 6159.67 271.286 6160.5 266.199 6163.16C263.294 6164.46 260.194 6165.28 257.023 6165.58C253.783 6165.25 250.622 6164.39 247.667 6163.02C242.583 6160.36 236.734 6159.52 231.105 6160.65C225.73 6163.09 221.363 6167.31 218.752 6172.6C217.561 6174.56 216.23 6176.43 214.767 6178.2C213.279 6180.06 213.502 6182.75 215.279 6184.34C217.055 6185.92 219.761 6185.84 221.438 6184.15C223.218 6182.04 224.835 6179.8 226.271 6177.44C228.733 6173.63 231.061 6170.05 233.837 6169.16C237.5 6168.86 241.173 6169.63 244.4 6171.39C248.366 6173.2 252.631 6174.26 256.979 6174.53C261.327 6174.26 265.589 6173.2 269.556 6171.39C272.783 6169.63 276.456 6168.86 280.119 6169.16C282.938 6170.05 285.266 6173.63 287.728 6177.48C289.776 6181.15 292.476 6184.41 295.697 6187.1C299.304 6189.29 303.276 6190.81 307.423 6191.58C311.178 6192.04 314.711 6193.6 317.584 6196.06C319.025 6199.51 319.445 6203.3 318.793 6206.98C318.314 6211.24 318.617 6215.54 319.688 6219.69C321.229 6223.54 323.459 6227.07 326.269 6230.12C329.212 6232.91 331.202 6236.56 331.953 6240.55C331.134 6244.35 329.184 6247.82 326.358 6250.49C323.52 6253.51 321.258 6257.03 319.688 6260.87C318.701 6264.61 318.381 6268.49 318.749 6272.33C318.867 6274.72 320.837 6276.59 323.225 6276.58H323.449C325.833 6276.46 327.703 6274.5 327.701 6272.11C327.409 6269.34 327.575 6266.54 328.193 6263.83C329.387 6260.97 331.052 6258.34 333.116 6256.04C337.429 6251.93 340.182 6246.46 340.906 6240.55L340.906 6240.55Z" fill="#00A424"/>
<path d="M232.67 6410.64C230.198 6410.64 228.194 6412.65 228.194 6415.12C228.194 6417.59 230.198 6419.6 232.67 6419.6H319.686C322.158 6419.6 324.163 6417.59 324.163 6415.12C324.163 6412.65 322.158 6410.64 319.686 6410.64H261.497V6316.11C263.063 6316.6 264.674 6317.23 266.376 6317.85C271.46 6320.52 277.309 6321.36 282.938 6320.23C288.318 6317.77 292.682 6313.54 295.291 6308.23C296.788 6305.51 298.724 6303.06 301.02 6300.98C302.643 6299.97 304.409 6299.22 306.258 6298.74C308.546 6297.96 309.796 6295.5 309.081 6293.19C308.368 6290.88 305.948 6289.55 303.616 6290.19C300.792 6290.97 298.116 6292.21 295.695 6293.86C292.515 6296.48 289.832 6299.65 287.772 6303.22C285.31 6307.02 282.982 6310.6 280.162 6311.54C276.497 6311.84 272.826 6311.06 269.597 6309.3C266.964 6308.29 264.254 6307.49 261.496 6306.89V6289.43C272.105 6288.31 281.927 6283.31 289.067 6275.39C296.207 6267.46 300.163 6257.17 300.171 6246.5C300.171 6244.03 298.167 6242.03 295.695 6242.03C293.221 6242.03 291.219 6244.03 291.219 6246.5C291.193 6254.79 288.168 6262.78 282.704 6269C277.239 6275.22 269.705 6279.25 261.496 6280.35V6220.19C261.496 6217.71 259.492 6215.71 257.02 6215.71C254.548 6215.71 252.544 6217.71 252.544 6220.19V6253.98C244.327 6252.89 236.788 6248.85 231.323 6242.62C225.857 6236.39 222.836 6228.38 222.822 6220.1C222.822 6217.62 220.82 6215.62 218.346 6215.62C215.874 6215.62 213.87 6217.62 213.87 6220.1C213.9 6230.75 217.866 6241.01 225.004 6248.92C232.142 6256.83 241.95 6261.82 252.545 6262.93V6306.71C249.781 6307.37 247.074 6308.23 244.444 6309.31C241.214 6311.06 237.544 6311.84 233.879 6311.54C231.059 6310.6 228.732 6307.07 226.269 6303.22C224.221 6299.55 221.522 6296.29 218.302 6293.6C214.694 6291.41 210.721 6289.89 206.574 6289.12C202.822 6288.66 199.287 6287.1 196.413 6284.64C194.951 6281.2 194.531 6277.4 195.206 6273.72C195.68 6269.46 195.376 6265.16 194.311 6261.01C192.756 6257.16 190.51 6253.62 187.685 6250.58C184.843 6247.88 182.893 6244.39 182.089 6240.55C182.915 6236.73 184.883 6233.25 187.73 6230.57C190.566 6227.5 192.812 6223.93 194.355 6220.05C195.406 6215.9 195.695 6211.59 195.206 6207.34C194.75 6203.97 194.994 6200.54 195.921 6197.27C196.497 6196.17 196.597 6194.89 196.195 6193.72C195.793 6192.56 194.926 6191.61 193.799 6191.1C192.674 6190.59 191.389 6190.57 190.248 6191.05C189.107 6191.52 188.212 6192.44 187.774 6193.6C186.16 6198.16 185.654 6203.04 186.298 6207.83C186.673 6211 186.521 6214.2 185.85 6217.32C184.629 6220.08 182.964 6222.62 180.926 6224.84C176.572 6229 173.815 6234.57 173.137 6240.55C173.86 6246.46 176.614 6251.93 180.926 6256.04C183.018 6258.26 184.727 6260.82 185.984 6263.6C186.659 6266.72 186.811 6269.93 186.431 6273.09C185.402 6278.81 186.366 6284.7 189.163 6289.79C193.12 6294.11 198.447 6296.94 204.246 6297.8C207.393 6298.38 210.418 6299.49 213.198 6301.07C215.496 6303.15 217.432 6305.6 218.929 6308.32C221.537 6313.62 225.903 6317.87 231.282 6320.32C232.729 6320.78 234.24 6321 235.758 6320.99C239.953 6320.71 244.061 6319.68 247.888 6317.95C249.589 6317.32 251.201 6316.65 252.768 6316.2V6410.64L232.67 6410.64Z" fill="#00A424"/>
<path d="M208.5 6415.12C208.5 6413.93 208.028 6412.79 207.189 6411.96C206.349 6411.12 205.21 6410.64 204.023 6410.64H194.356C191.884 6410.64 189.88 6412.65 189.88 6415.12C189.88 6417.59 191.884 6419.6 194.356 6419.6H204.023C205.21 6419.6 206.349 6419.13 207.189 6418.29C208.028 6417.45 208.5 6416.31 208.5 6415.12Z" fill="#00A424"/>
<path d="M217.63 6410.64C215.159 6410.64 213.154 6412.65 213.154 6415.12C213.154 6417.59 215.159 6419.6 217.63 6419.6H219.063C221.535 6419.6 223.539 6417.59 223.539 6415.12C223.539 6412.65 221.535 6410.64 219.063 6410.64H217.63Z" fill="#00A424"/>
<path d="M1647.39 1230.71C1646.08 1229.42 1643.98 1229.43 1642.68 1230.73C1641.39 1232.03 1641.4 1234.14 1642.7 1235.43L1643.46 1236.2C1644.77 1237.49 1646.87 1237.48 1648.17 1236.18C1649.46 1234.88 1649.45 1232.77 1648.15 1231.48L1647.39 1230.71Z" fill="#1E1E1E"/>
<path d="M1627.38 1250.75C1626.09 1249.45 1623.98 1249.44 1622.68 1250.73C1621.38 1252.03 1621.37 1254.13 1622.66 1255.43L1623.43 1256.2V1256.2C1624.72 1257.5 1626.83 1257.51 1628.13 1256.22C1629.43 1254.92 1629.44 1252.82 1628.15 1251.51L1627.38 1250.75Z" fill="#1E1E1E"/>
<path d="M1701.05 1221.04C1706.88 1220.9 1712.39 1218.38 1716.31 1214.06C1719.31 1210.43 1723.7 1208.25 1728.4 1208.05C1731.22 1208.31 1733.82 1209.64 1735.68 1211.77C1736.84 1213.09 1738.82 1213.28 1740.21 1212.21C1741.6 1211.14 1741.92 1209.17 1740.93 1207.72C1737.92 1204.09 1733.59 1201.82 1728.9 1201.4C1723.09 1201 1717.24 1203.76 1711.52 1209.48H1711.52C1708.8 1212.67 1704.82 1214.52 1700.62 1214.53C1696.14 1214.05 1691.97 1212 1688.86 1208.75C1688.97 1207.96 1689.03 1207.18 1689.03 1206.39C1689.02 1205.27 1688.91 1204.16 1688.69 1203.06H1689.99H1689.99C1693.62 1203.06 1697.14 1201.76 1699.89 1199.39C1702.65 1197.02 1704.46 1193.74 1705 1190.14C1705.55 1186.55 1704.78 1182.88 1702.85 1179.8L1710.49 1172.16C1711.62 1170.84 1711.55 1168.88 1710.32 1167.65C1709.09 1166.42 1707.13 1166.34 1705.81 1167.47L1698.16 1175.12C1695.08 1173.2 1691.42 1172.45 1687.83 1172.99C1684.24 1173.54 1680.97 1175.35 1678.6 1178.1C1676.23 1180.84 1674.92 1184.35 1674.9 1187.98V1189.31C1673.02 1188.99 1671.1 1188.99 1669.22 1189.31C1665.95 1186.18 1663.87 1182.01 1663.34 1177.51C1663.36 1173.29 1665.2 1169.28 1668.39 1166.51C1674.14 1160.79 1676.83 1154.95 1676.46 1149.13C1676.07 1144.45 1673.82 1140.12 1670.22 1137.1C1669.53 1136.5 1668.62 1136.21 1667.71 1136.29C1666.79 1136.38 1665.96 1136.85 1665.4 1137.57C1664.84 1138.3 1664.6 1139.22 1664.75 1140.13C1664.89 1141.03 1665.41 1141.84 1666.16 1142.35C1668.18 1144.13 1669.47 1146.59 1669.79 1149.26C1670.02 1153.08 1667.96 1157.21 1663.64 1161.53C1659.09 1165.61 1656.54 1171.47 1656.66 1177.58C1656.71 1178.55 1656.83 1179.51 1657.02 1180.47L1639.05 1158.57C1637.88 1157.15 1635.78 1156.94 1634.36 1158.1C1632.94 1159.27 1632.73 1161.37 1633.9 1162.79L1659.35 1193.79L1658.39 1194.76L1619.74 1156.28C1618.45 1154.97 1616.34 1154.97 1615.04 1156.26C1613.74 1157.55 1613.73 1159.66 1615.02 1160.96L1653.67 1199.61L1652.7 1200.57L1605.65 1162.16C1603.3 1160.22 1601.87 1157.37 1601.72 1154.32C1601.58 1151.27 1602.73 1148.3 1604.89 1146.14C1607 1144.04 1609.85 1142.85 1612.83 1142.82C1615.72 1142.83 1618.48 1144.03 1620.47 1146.14C1621.71 1147.5 1623.81 1147.6 1625.17 1146.36C1625.82 1145.76 1626.21 1144.93 1626.25 1144.05C1626.3 1143.17 1625.98 1142.31 1625.39 1141.66C1622.21 1138.14 1617.73 1136.1 1612.99 1136.01C1608.11 1135.88 1603.4 1137.8 1599.99 1141.3C1596.59 1144.81 1594.81 1149.58 1595.08 1154.45C1595.36 1159.33 1597.66 1163.87 1601.43 1166.98L1648.92 1206.32L1648.75 1206.79C1642.71 1201.59 1635.13 1198.53 1627.18 1198.08C1618.38 1198.22 1610.02 1202.01 1604.12 1208.55C1596.94 1215.66 1590.03 1219.11 1583.39 1218.72C1578.42 1218.25 1573.83 1215.87 1570.59 1212.07C1569.46 1210.62 1567.37 1210.36 1565.92 1211.49C1564.47 1212.62 1564.21 1214.71 1565.34 1216.16C1569.74 1221.41 1576.06 1224.69 1582.89 1225.26H1584.38C1592.46 1225.26 1600.66 1221.14 1608.81 1213.03C1613.48 1207.84 1620.1 1204.83 1627.08 1204.73C1636.69 1204.89 1644.5 1211.6 1647.62 1214.7L1647.02 1214.5C1641.23 1212.88 1635.04 1213.57 1629.74 1216.42C1627.72 1217.5 1625.87 1218.88 1624.26 1220.51L1599.63 1245.13L1599.63 1245.13C1599.19 1245.58 1598.77 1246.04 1598.37 1246.53C1594.42 1251.08 1592.39 1256.98 1592.7 1263C1593.02 1269.02 1595.65 1274.68 1600.06 1278.79C1604.46 1282.9 1610.29 1285.14 1616.32 1285.04C1621.84 1285.06 1627.18 1283.12 1631.4 1279.56C1631.91 1279.15 1632.38 1278.7 1632.83 1278.23L1641.64 1269.46L1657.49 1253.61C1659.11 1251.98 1660.49 1250.12 1661.57 1248.09C1664.06 1243.38 1664.89 1237.98 1663.94 1232.74C1663.77 1231.89 1663.56 1231.04 1663.3 1230.21C1666.63 1233.37 1673.27 1241.15 1673.27 1250.75C1673.1 1257.75 1670.02 1264.36 1664.77 1268.99C1656.13 1277.63 1652.04 1286.34 1652.57 1294.91C1653.14 1301.74 1656.42 1308.06 1661.67 1312.46C1662.36 1313.06 1663.27 1313.35 1664.19 1313.26C1665.1 1313.18 1665.93 1312.71 1666.49 1311.99C1667.06 1311.26 1667.29 1310.34 1667.15 1309.43C1667 1308.53 1666.49 1307.72 1665.73 1307.21C1661.93 1304.01 1659.54 1299.45 1659.08 1294.51C1658.65 1287.87 1662.11 1280.92 1669.35 1273.71V1273.71C1675.88 1267.82 1679.65 1259.47 1679.75 1250.68C1679.28 1242.74 1676.19 1235.17 1670.98 1229.15L1671.44 1228.98L1698.03 1261.45C1699.23 1262.73 1701.22 1262.86 1702.57 1261.74C1703.92 1260.63 1704.18 1258.65 1703.15 1257.23L1677.19 1225.33L1678.16 1224.36L1716.9 1262.85C1718.22 1263.98 1720.19 1263.9 1721.41 1262.67C1722.64 1261.44 1722.72 1259.48 1721.59 1258.16L1683.08 1219.54L1684.04 1218.58L1730.99 1257.03C1731.39 1257.35 1731.76 1257.71 1732.09 1258.09C1734.82 1260.82 1735.89 1264.8 1734.89 1268.53C1733.89 1272.26 1730.98 1275.17 1727.25 1276.17C1723.51 1277.17 1719.54 1276.11 1716.81 1273.38C1715.46 1272.13 1713.35 1272.21 1712.1 1273.56C1710.85 1274.91 1710.94 1277.01 1712.29 1278.26C1715.49 1281.22 1719.69 1282.85 1724.05 1282.85C1728.59 1282.85 1732.94 1281.08 1736.2 1277.93C1739.46 1274.78 1741.37 1270.48 1741.52 1265.95C1741.67 1261.41 1740.05 1257 1737.01 1253.64C1736.44 1252.99 1735.82 1252.39 1735.15 1251.84L1697.17 1220.61C1698.26 1220.84 1699.37 1220.97 1700.49 1221.01L1701.05 1221.04ZM1681.45 1187.81C1681.46 1184.95 1682.9 1182.29 1685.28 1180.71C1687.66 1179.13 1690.67 1178.84 1693.31 1179.93C1695.95 1181.02 1697.87 1183.36 1698.43 1186.17C1698.99 1188.97 1698.12 1191.86 1696.1 1193.89C1694.47 1195.46 1692.29 1196.33 1690.02 1196.33C1687.76 1196.33 1685.58 1195.46 1683.94 1193.89C1682.34 1192.29 1681.44 1190.11 1681.45 1187.84L1681.45 1187.81ZM1679.26 1198.58C1681.95 1201.27 1683.01 1205.19 1682.05 1208.88C1681.78 1209.96 1681.33 1210.98 1680.72 1211.9C1680.31 1212.59 1679.82 1213.22 1679.26 1213.8L1672.61 1220.44C1672.03 1221.01 1671.38 1221.51 1670.68 1221.94C1668.89 1223.12 1666.77 1223.69 1664.64 1223.57C1661.9 1223.49 1659.29 1222.37 1657.35 1220.42C1655.42 1218.48 1654.3 1215.87 1654.23 1213.13C1654.15 1211 1654.72 1208.89 1655.86 1207.08C1656.29 1206.4 1656.79 1205.76 1657.36 1205.19L1664 1198.54C1664.36 1198.22 1664.74 1197.92 1665.13 1197.65C1665.4 1197.45 1665.6 1197.22 1665.93 1197.05C1666.88 1196.44 1667.92 1196 1669.02 1195.75C1669.9 1195.53 1670.8 1195.42 1671.71 1195.42C1674.56 1195.44 1677.27 1196.6 1679.26 1198.64L1679.26 1198.58ZM1604.23 1273.68C1601.71 1271.14 1600.06 1267.87 1599.51 1264.33C1598.97 1260.8 1599.56 1257.18 1601.2 1254L1623.86 1276.67C1620.69 1278.3 1617.09 1278.9 1613.56 1278.36C1610.03 1277.82 1606.76 1276.18 1604.23 1273.68L1604.23 1273.68ZM1629.11 1272.55L1605.36 1248.79L1610.67 1243.47L1615.49 1248.29H1615.49C1616.81 1249.42 1618.77 1249.34 1620 1248.12C1621.23 1246.89 1621.3 1244.92 1620.18 1243.6L1615.36 1238.79L1620.67 1233.47L1644.47 1257.26L1639.15 1262.58L1635.33 1258.76C1634.01 1257.63 1632.05 1257.7 1630.82 1258.93C1629.59 1260.16 1629.51 1262.12 1630.64 1263.44L1634.46 1267.26L1629.11 1272.55ZM1649.05 1252.61L1625.26 1228.82L1628.78 1225.3H1628.78C1629.37 1224.7 1630.01 1224.14 1630.68 1223.63L1635.39 1228.35V1228.35C1636.71 1229.48 1638.68 1229.4 1639.91 1228.18C1641.13 1226.95 1641.21 1224.99 1640.08 1223.67L1637.16 1220.74C1642.64 1219.57 1648.35 1221.22 1652.37 1225.13L1652.77 1225.56L1652.97 1225.76L1653.27 1226.16C1655.3 1228.4 1656.65 1231.16 1657.19 1234.13C1657.38 1235.14 1657.47 1236.17 1657.46 1237.19C1657.45 1238.31 1657.32 1239.42 1657.09 1240.51L1655.17 1238.59C1653.85 1237.46 1651.88 1237.53 1650.66 1238.76C1649.43 1239.99 1649.35 1241.95 1650.48 1243.27L1654.2 1246.99H1654.2C1653.7 1247.68 1653.14 1248.32 1652.54 1248.92L1649.05 1252.61Z" fill="#1E1E1E"/>
<path d="M1710.59 1265.94L1709.93 1265.11C1708.76 1263.74 1706.72 1263.55 1705.32 1264.67C1703.92 1265.79 1703.66 1267.82 1704.74 1269.26L1705.41 1270.09C1706.57 1271.46 1708.61 1271.65 1710.01 1270.52C1711.41 1269.4 1711.67 1267.37 1710.59 1265.94Z" fill="#1E1E1E"/>
<path d="M1627.35 1149.43C1626.65 1149.98 1626.21 1150.78 1626.11 1151.66C1626.01 1152.54 1626.26 1153.42 1626.82 1154.12L1627.48 1154.95C1628.65 1156.31 1630.69 1156.5 1632.09 1155.38C1633.49 1154.26 1633.74 1152.23 1632.67 1150.79L1632 1149.96C1630.86 1148.54 1628.78 1148.3 1627.35 1149.43Z" fill="#1E1E1E"/>
<path d="M1602.27 2397.7C1601.09 2397.22 1599.73 2397.8 1599.25 2398.98C1597.12 2403.49 1595.81 2408.35 1595.36 2413.31C1595.38 2419.27 1597.59 2425.01 1601.58 2429.43C1605.56 2433.86 1611.04 2436.66 1616.96 2437.3C1622.87 2437.94 1628.82 2436.38 1633.66 2432.91C1634.19 2432.56 1634.55 2432.01 1634.67 2431.38C1634.78 2430.76 1634.64 2430.12 1634.26 2429.6C1633.89 2429.09 1633.33 2428.75 1632.7 2428.66C1632.07 2428.57 1631.44 2428.74 1630.94 2429.14C1627.03 2431.93 1622.23 2433.19 1617.45 2432.68C1612.67 2432.16 1608.25 2429.9 1605.04 2426.32C1601.82 2422.75 1600.03 2418.12 1600.02 2413.31C1600.02 2411.55 1600.62 2407.94 1603.55 2400.73C1604.03 2399.54 1603.46 2398.19 1602.27 2397.7L1602.27 2397.7Z" fill="#12AAFF"/>
<path d="M1617.56 2363.29C1617.56 2363.29 1610.58 2375.11 1604.51 2387.37H1604.51C1604.05 2388.5 1604.54 2389.79 1605.64 2390.33C1606.73 2390.87 1608.06 2390.47 1608.67 2389.42C1612.65 2381.3 1617.05 2373.44 1619.54 2369.08C1626.52 2381.04 1639.06 2404.82 1639.06 2413.29L1639.06 2413.29C1639.06 2415.51 1638.68 2417.72 1637.94 2419.81C1637.69 2420.4 1637.69 2421.07 1637.95 2421.66C1638.2 2422.25 1638.69 2422.7 1639.3 2422.92C1639.9 2423.14 1640.57 2423.09 1641.14 2422.8C1641.72 2422.5 1642.14 2421.98 1642.32 2421.37C1643.27 2418.79 1643.77 2416.07 1643.81 2413.32C1643.81 2400.75 1622.52 2364.83 1621.61 2363.29C1621.2 2362.56 1620.42 2362.11 1619.59 2362.11C1618.75 2362.11 1617.97 2362.56 1617.56 2363.29L1617.56 2363.29Z" fill="#12AAFF"/>
<path d="M1684.66 2363.29C1684.66 2363.29 1682.59 2366.78 1679.71 2372C1679.07 2373.12 1679.46 2374.55 1680.58 2375.2C1681.71 2375.84 1683.14 2375.45 1683.78 2374.32C1684.9 2372.32 1685.87 2370.58 1686.67 2369.18C1693.65 2381.14 1706.19 2404.92 1706.19 2413.39L1706.19 2413.39C1706.37 2418.69 1704.39 2423.83 1700.71 2427.64C1697.03 2431.45 1691.95 2433.61 1686.65 2433.61C1681.35 2433.61 1676.28 2431.45 1672.6 2427.64C1668.91 2423.83 1666.94 2418.69 1667.12 2413.39C1667.12 2408.73 1671.15 2398.4 1678.43 2384.28C1679.02 2383.14 1678.57 2381.73 1677.43 2381.14C1676.28 2380.55 1674.88 2381 1674.29 2382.14C1666.45 2397.26 1662.42 2407.78 1662.42 2413.32C1662.22 2419.86 1664.68 2426.21 1669.23 2430.91C1673.79 2435.61 1680.06 2438.27 1686.61 2438.27C1693.16 2438.27 1699.42 2435.61 1703.98 2430.91C1708.54 2426.21 1711 2419.86 1710.79 2413.32C1710.79 2400.75 1689.5 2364.83 1688.6 2363.3C1688.17 2362.62 1687.43 2362.21 1686.63 2362.21C1685.83 2362.21 1685.09 2362.62 1684.66 2363.3L1684.66 2363.29Z" fill="#12AAFF"/>
<path d="M1629.85 2338.63C1629.29 2340.52 1628.98 2342.47 1628.92 2344.44C1628.91 2353.09 1633.51 2361.08 1641 2365.41C1648.48 2369.74 1657.7 2369.75 1665.19 2365.44C1672.68 2361.12 1677.3 2353.14 1677.31 2344.49C1677.24 2342.3 1676.87 2340.14 1676.22 2338.05C1676.09 2337.41 1675.7 2336.86 1675.15 2336.52C1674.6 2336.19 1673.93 2336.09 1673.31 2336.27C1672.69 2336.44 1672.16 2336.87 1671.87 2337.45C1671.57 2338.02 1671.53 2338.69 1671.75 2339.3C1672.28 2340.99 1672.58 2342.73 1672.66 2344.49C1672.66 2349.67 1670.6 2354.65 1666.93 2358.31C1663.27 2361.98 1658.3 2364.04 1653.11 2364.04C1647.93 2364.04 1642.96 2361.98 1639.29 2358.31C1635.63 2354.65 1633.57 2349.67 1633.57 2344.49C1633.63 2342.91 1633.89 2341.35 1634.34 2339.84C1634.62 2338.62 1633.89 2337.39 1632.68 2337.06C1631.47 2336.74 1630.21 2337.43 1629.85 2338.63Z" fill="#12AAFF"/>
<path d="M1634.73 2331.51C1635.92 2332.01 1637.28 2331.46 1637.78 2330.28C1642.35 2320.01 1647.47 2310 1653.12 2300.28C1659.09 2310.54 1664.45 2321.13 1669.17 2332.02C1669.37 2332.63 1669.82 2333.13 1670.4 2333.39C1670.99 2333.66 1671.65 2333.68 1672.25 2333.44C1672.84 2333.2 1673.31 2332.72 1673.54 2332.12C1673.78 2331.52 1673.75 2330.86 1673.47 2330.28C1668.11 2317.96 1661.97 2305.98 1655.12 2294.42C1654.7 2293.71 1653.94 2293.28 1653.12 2293.28C1652.29 2293.28 1651.53 2293.71 1651.11 2294.42C1644.61 2305.43 1638.73 2316.8 1633.5 2328.46C1633 2329.64 1633.55 2331.01 1634.73 2331.51L1634.73 2331.51Z" fill="#12AAFF"/>
<path d="M1699.73 3549.84C1699.73 3548.35 1698.52 3547.15 1697.03 3547.15C1695.55 3547.15 1694.34 3548.35 1694.34 3549.84C1694.34 3557.15 1691.7 3564.2 1686.9 3569.71C1682.1 3575.21 1675.47 3578.79 1668.23 3579.78C1661 3580.77 1653.65 3579.11 1647.55 3575.09C1641.44 3571.08 1637 3564.99 1635.05 3557.95C1633.09 3550.92 1633.75 3543.41 1636.9 3536.82C1640.05 3530.24 1645.49 3525.02 1652.2 3522.13C1653.19 3521.7 1653.84 3520.73 1653.84 3519.65V3447.92C1653.84 3446.44 1652.63 3445.23 1651.14 3445.23C1649.66 3445.23 1648.45 3446.44 1648.45 3447.92V3518.03C1640.8 3521.77 1634.75 3528.12 1631.39 3535.94C1628.03 3543.76 1627.58 3552.52 1630.13 3560.64C1632.67 3568.76 1638.04 3575.7 1645.26 3580.2C1652.49 3584.7 1661.08 3586.47 1669.49 3585.18C1677.91 3583.88 1685.57 3579.62 1691.11 3573.16C1696.65 3566.69 1699.69 3558.46 1699.68 3549.95L1699.73 3549.84Z" fill="#D8D8D8"/>
<path d="M1679.86 3518.03V3433.98C1679.86 3428.37 1676.86 3423.18 1672 3420.37C1667.14 3417.56 1661.14 3417.56 1656.28 3420.37C1651.42 3423.18 1648.42 3428.37 1648.42 3433.98C1648.42 3435.47 1649.63 3436.68 1651.12 3436.68C1652.61 3436.68 1653.81 3435.47 1653.81 3433.98C1653.81 3430.29 1655.78 3426.89 1658.98 3425.04C1662.17 3423.2 1666.11 3423.2 1669.3 3425.04C1672.5 3426.89 1674.47 3430.3 1674.47 3433.98V3519.65C1674.47 3520.73 1675.12 3521.7 1676.11 3522.13C1683.85 3525.46 1689.84 3531.87 1692.64 3539.81C1693.13 3541.22 1694.67 3541.96 1696.08 3541.47C1697.48 3540.98 1698.23 3539.44 1697.74 3538.03C1694.61 3529.29 1688.2 3522.11 1679.86 3518.03Z" fill="#D8D8D8"/>
<path d="M1620.43 3429.67H1599.99C1598.51 3429.67 1597.3 3430.88 1597.3 3432.37C1597.3 3433.86 1598.51 3435.06 1599.99 3435.06H1620.43C1621.92 3435.06 1623.13 3433.86 1623.13 3432.37C1623.13 3430.88 1621.92 3429.67 1620.43 3429.67Z" fill="#D8D8D8"/>
<path d="M1620.43 3445.23H1610.56C1609.08 3445.23 1607.87 3446.44 1607.87 3447.92C1607.87 3449.41 1609.08 3450.62 1610.56 3450.62H1620.46C1621.95 3450.62 1623.16 3449.41 1623.16 3447.92C1623.16 3446.44 1621.95 3445.23 1620.46 3445.23H1620.43Z" fill="#D8D8D8"/>
<path d="M1620.43 3460.54H1610.56C1609.08 3460.54 1607.87 3461.75 1607.87 3463.24C1607.87 3464.73 1609.08 3465.94 1610.56 3465.94H1620.46C1621.95 3465.94 1623.16 3464.73 1623.16 3463.24C1623.16 3461.75 1621.95 3460.54 1620.46 3460.54H1620.43Z" fill="#D8D8D8"/>
<path d="M1620.43 3475.99H1599.99C1598.51 3475.99 1597.3 3477.2 1597.3 3478.69C1597.3 3480.18 1598.51 3481.39 1599.99 3481.39H1620.43C1621.92 3481.39 1623.13 3480.18 1623.13 3478.69C1623.13 3477.2 1621.92 3475.99 1620.43 3475.99Z" fill="#D8D8D8"/>
<path d="M1620.43 3491.44H1610.56C1609.08 3491.44 1607.87 3492.65 1607.87 3494.14C1607.87 3495.63 1609.08 3496.84 1610.56 3496.84H1620.46C1621.95 3496.84 1623.16 3495.63 1623.16 3494.14C1623.16 3492.65 1621.95 3491.44 1620.46 3491.44H1620.43Z" fill="#D8D8D8"/>
<path d="M1620.43 3506.86H1610.56C1609.08 3506.86 1607.87 3508.07 1607.87 3509.56C1607.87 3511.05 1609.08 3512.25 1610.56 3512.25H1620.46C1621.95 3512.25 1623.16 3511.05 1623.16 3509.56C1623.16 3508.07 1621.95 3506.86 1620.46 3506.86H1620.43Z" fill="#D8D8D8"/>
<path d="M1620.43 3522.31H1599.99C1598.51 3522.31 1597.3 3523.52 1597.3 3525.01C1597.3 3526.5 1598.51 3527.71 1599.99 3527.71H1620.43C1621.92 3527.71 1623.13 3526.5 1623.13 3525.01C1623.13 3523.52 1621.92 3522.31 1620.43 3522.31Z" fill="#D8D8D8"/>
<path d="M1620.43 3537.76H1610.56C1609.08 3537.76 1607.87 3538.97 1607.87 3540.46C1607.87 3541.95 1609.08 3543.16 1610.56 3543.16H1620.46C1621.95 3543.16 1623.16 3541.95 1623.16 3540.46C1623.16 3538.97 1621.95 3537.76 1620.46 3537.76H1620.43Z" fill="#D8D8D8"/>
<path d="M1620.43 3553.08H1610.56C1609.08 3553.08 1607.87 3554.29 1607.87 3555.78C1607.87 3557.27 1609.08 3558.47 1610.56 3558.47H1620.46C1621.95 3558.47 1623.16 3557.27 1623.16 3555.78C1623.16 3554.29 1621.95 3553.08 1620.46 3553.08H1620.43Z" fill="#D8D8D8"/>
<path d="M1623.13 3571.33C1623.13 3570.62 1622.84 3569.93 1622.34 3569.43C1621.83 3568.92 1621.15 3568.64 1620.43 3568.64H1599.99C1598.51 3568.64 1597.3 3569.84 1597.3 3571.33C1597.3 3572.82 1598.51 3574.03 1599.99 3574.03H1620.43C1621.15 3574.03 1621.83 3573.75 1622.34 3573.24C1622.84 3572.73 1623.13 3572.05 1623.13 3571.33Z" fill="#D8D8D8"/>
<path d="M1698.41 3424.31C1695.64 3424.31 1692.97 3425.41 1691.01 3427.37C1689.05 3429.33 1687.95 3431.99 1687.95 3434.77C1687.95 3437.54 1689.05 3440.2 1691.01 3442.16C1692.97 3444.13 1695.64 3445.23 1698.41 3445.23C1701.18 3445.23 1703.85 3444.13 1705.81 3442.16C1707.77 3440.2 1708.87 3437.54 1708.87 3434.77C1708.86 3432 1707.76 3429.34 1705.8 3427.38C1703.84 3425.42 1701.18 3424.31 1698.41 3424.31ZM1698.41 3439.86V3439.86C1697.07 3439.86 1695.78 3439.33 1694.83 3438.38C1693.88 3437.43 1693.34 3436.14 1693.34 3434.79C1693.34 3433.45 1693.88 3432.16 1694.83 3431.21C1695.78 3430.26 1697.07 3429.73 1698.41 3429.73C1699.75 3429.73 1701.04 3430.26 1701.99 3431.21C1702.95 3432.16 1703.48 3433.45 1703.48 3434.79C1703.47 3436.13 1702.93 3437.41 1701.98 3438.35C1701.03 3439.3 1699.75 3439.83 1698.41 3439.84L1698.41 3439.86Z" fill="#D8D8D8"/>
<path d="M1684.93 4663.48C1701.27 4663.43 1716.5 4655.25 1725.54 4641.65C1734.59 4628.06 1736.26 4610.84 1730 4595.76C1723.73 4580.68 1710.36 4569.72 1694.35 4566.53C1678.33 4563.35 1661.78 4568.36 1650.22 4579.89L1652.68 4582.36L1650.05 4580.38L1652.51 4582.84L1655.29 4584.99C1662.85 4577.44 1673.01 4573.06 1683.69 4572.73C1694.38 4572.41 1704.78 4576.17 1712.79 4583.25C1720.8 4590.33 1725.8 4600.2 1726.79 4610.84C1727.78 4621.48 1724.67 4632.1 1718.1 4640.53C1711.53 4648.96 1701.99 4654.57 1691.43 4656.22C1680.87 4657.86 1670.08 4655.42 1661.26 4649.39L1660.11 4648.27C1659.49 4647.82 1658.83 4647.37 1658.24 4646.85L1657.86 4646.51C1656.99 4645.78 1656.16 4645.01 1655.36 4644.21C1654.56 4643.42 1654 4642.76 1653.34 4642.03L1652.75 4641.37L1652.44 4640.95C1651.75 4640.08 1651.05 4639.18 1650.43 4638.28C1643.48 4628.13 1641.32 4615.44 1644.53 4603.57C1644.8 4602.67 1644.7 4601.69 1644.25 4600.87C1643.79 4600.04 1643.02 4599.44 1642.11 4599.2C1641.2 4598.95 1640.23 4599.09 1639.42 4599.57C1638.62 4600.05 1638.04 4600.84 1637.83 4601.76C1634.41 4614.58 1636.33 4628.23 1643.17 4639.6L1623.63 4659.14L1622.83 4658.34H1622.83C1622.18 4657.69 1621.29 4657.33 1620.37 4657.34C1619.45 4657.33 1618.56 4657.69 1617.9 4658.34L1577.26 4699.02C1574.17 4702.11 1572.43 4706.29 1572.43 4710.65C1572.43 4715.02 1574.17 4719.2 1577.26 4722.28C1579.78 4724.78 1583.04 4726.4 1586.56 4726.9H1587.05C1588.96 4727.03 1590.62 4725.59 1590.76 4723.67C1590.89 4721.75 1589.45 4720.09 1587.53 4719.96C1585.26 4719.64 1583.18 4718.52 1581.68 4716.79C1580.18 4715.06 1579.36 4712.84 1579.37 4710.55C1579.37 4708.05 1580.37 4705.65 1582.15 4703.88L1620.34 4665.7L1633.8 4679.17L1606.93 4706V4706C1605.76 4707.38 1605.83 4709.43 1607.12 4710.71C1608.4 4712 1610.45 4712.08 1611.83 4710.9L1641.16 4681.6C1642.51 4680.25 1642.51 4678.06 1641.16 4676.7L1640.36 4675.91L1659.87 4656.4H1659.87C1667.43 4660.99 1676.09 4663.43 1684.93 4663.48ZM1635.37 4671.08L1628.42 4664.14L1647.06 4645.5C1647.62 4646.19 1648.24 4646.82 1648.87 4647.48C1649.49 4648.14 1649.77 4648.52 1650.26 4649C1650.74 4649.49 1651.4 4650.05 1651.96 4650.57C1652.51 4651.09 1653.14 4651.68 1653.73 4652.16L1635.37 4671.08Z" fill="#D8D8D8"/>
<path d="M1647.9 4588.19C1647.13 4587.67 1646.19 4587.49 1645.28 4587.67C1644.38 4587.85 1643.58 4588.39 1643.07 4589.16C1642.73 4589.67 1642.44 4590.22 1642.21 4590.79C1641.79 4591.86 1641.93 4593.06 1642.58 4594C1643.22 4594.94 1644.29 4595.51 1645.43 4595.51C1646.84 4595.52 1648.11 4594.69 1648.66 4593.39L1648.9 4593.01C1649.41 4592.24 1649.6 4591.3 1649.41 4590.39C1649.22 4589.48 1648.67 4588.69 1647.9 4588.19Z" fill="#D8D8D8"/>
<path d="M1652.93 4633.45C1656.11 4638.86 1660.61 4643.36 1666.02 4646.54C1673.11 4650.73 1681.39 4652.44 1689.55 4651.41C1697.72 4650.38 1705.32 4646.66 1711.14 4640.85C1712.22 4639.75 1713.23 4638.59 1714.17 4637.37C1719.92 4630.01 1722.69 4620.75 1721.93 4611.43C1721.17 4602.12 1716.93 4593.43 1710.06 4587.1C1703.18 4580.76 1694.18 4577.25 1684.83 4577.25C1676.56 4577.25 1668.53 4580.02 1662.03 4585.13L1661.33 4585.65L1660.39 4586.49C1659.77 4587.04 1659.15 4587.56 1658.56 4588.15C1652.71 4594 1648.98 4601.63 1647.96 4609.84C1646.95 4618.04 1648.69 4626.35 1652.93 4633.45L1652.93 4633.45ZM1665.81 4591.07L1666.4 4590.62V4590.62C1674.22 4584.56 1684.51 4582.7 1693.95 4585.65C1703.39 4588.59 1710.8 4595.96 1713.79 4605.39C1716.78 4614.82 1714.98 4625.12 1708.96 4632.96C1708.17 4634 1707.31 4634.99 1706.39 4635.91C1701.64 4640.68 1695.43 4643.73 1688.75 4644.56C1682.07 4645.4 1675.31 4643.98 1669.52 4640.53C1665.16 4637.94 1661.52 4634.28 1658.94 4629.91C1655.51 4624.13 1654.11 4617.38 1654.95 4610.71C1655.79 4604.05 1658.83 4597.86 1663.59 4593.11C1664.14 4592.56 1664.73 4592.07 1665.32 4591.55L1665.81 4591.07Z" fill="#D8D8D8"/>
<path d="M1599.68 4722.97C1599.96 4722.77 1600.23 4722.53 1600.48 4722.28L1601.21 4721.55C1602.39 4720.17 1602.31 4718.12 1601.03 4716.84C1599.74 4715.56 1597.69 4715.48 1596.31 4716.66L1595.52 4717.45V4717.46C1594.09 4718.65 1593.85 4720.75 1594.97 4722.22C1596.1 4723.7 1598.19 4724.03 1599.71 4722.98L1599.68 4722.97Z" fill="#D8D8D8"/>
<path d="M1668.31 5872.2C1667.51 5871.91 1666.62 5871.96 1665.85 5872.32C1665.09 5872.69 1664.49 5873.35 1664.21 5874.15C1664.13 5874.38 1664.03 5874.61 1663.92 5874.82C1663.2 5876.4 1663.86 5878.26 1665.41 5879.03C1666.96 5879.8 1668.84 5879.2 1669.66 5877.67C1669.89 5877.23 1670.09 5876.77 1670.26 5876.3C1670.55 5875.49 1670.51 5874.61 1670.14 5873.84C1669.77 5873.07 1669.12 5872.48 1668.31 5872.2Z" fill="#D8D8D8"/>
<path d="M1719.08 5782.47C1718.48 5784.14 1719.34 5785.97 1721 5786.57L1721.52 5786.8H1721.77C1722.18 5786.98 1722.61 5787.08 1723.05 5787.09C1724.3 5787.05 1725.41 5786.3 1725.9 5785.16C1726.27 5784.38 1726.3 5783.47 1725.98 5782.67C1725.67 5781.86 1725.04 5781.21 1724.24 5780.87L1723.25 5780.55C1722.44 5780.24 1721.54 5780.27 1720.76 5780.63C1719.97 5781 1719.37 5781.66 1719.08 5782.47Z" fill="#D8D8D8"/>
<path d="M1586.08 5827.96C1585.6 5828.86 1585.12 5829.82 1584.64 5830.78C1584.07 5830.69 1583.49 5830.63 1582.91 5830.62C1579.19 5830.61 1575.67 5832.27 1573.31 5835.13C1570.95 5838 1570 5841.77 1570.71 5845.41C1571.43 5849.06 1573.74 5852.18 1577.01 5853.94C1576.24 5862.17 1578.87 5866.75 1581.34 5869.32C1584.73 5872.46 1589.25 5874.09 1593.86 5873.83C1601.45 5873.83 1611.26 5870.63 1622.69 5864.54C1624.98 5872.88 1628.65 5880.78 1633.55 5887.9C1638.17 5894.05 1643.16 5897.19 1648.67 5897.19C1654.18 5897.19 1659.21 5893.98 1663.82 5887.9C1664.89 5886.48 1664.6 5884.47 1663.18 5883.41C1661.77 5882.35 1659.76 5882.64 1658.7 5884.05C1656.39 5887.26 1652.77 5890.78 1648.67 5890.78C1644.57 5890.78 1640.98 5887.13 1638.68 5884.05C1634 5877.11 1630.56 5869.42 1628.49 5861.31C1635.51 5857.09 1642.26 5852.43 1648.7 5847.37C1655.1 5852.43 1661.81 5857.09 1668.79 5861.31C1668.47 5862.37 1668.18 5863.45 1667.86 5864.51C1667.45 5866.15 1668.38 5867.82 1669.99 5868.33C1671.6 5868.85 1673.33 5868.03 1673.95 5866.47C1674.14 5865.86 1674.3 5865.22 1674.49 5864.57C1677.09 5865.95 1679.68 5867.27 1682.24 5868.39C1688.84 5871.63 1696.04 5873.5 1703.39 5873.87C1708.01 5874.12 1712.53 5872.48 1715.91 5869.32C1722.13 5862.91 1721.9 5851.67 1715.27 5836.35C1714.12 5833.73 1712.77 5830.94 1711.17 5827.93L1713.32 5827.29C1716.7 5826.23 1720.01 5824.98 1723.25 5823.54C1723.68 5823.39 1724.11 5823.2 1724.53 5823C1728.19 5821.37 1731.66 5819.34 1734.87 5816.94C1737.17 5815.26 1739.18 5813.23 1740.83 5810.92C1745.28 5810.71 1749.28 5808.14 1751.31 5804.18C1753.35 5800.23 1753.13 5795.48 1750.72 5791.74C1748.32 5787.99 1744.09 5785.82 1739.65 5786.03C1737.99 5786.04 1736.36 5786.39 1734.84 5787.06C1733.68 5786.2 1732.09 5786.23 1730.96 5787.13C1729.83 5788.03 1729.44 5789.57 1730.01 5790.9V5791.09C1729.78 5791.41 1729.56 5791.7 1729.36 5792.05L1729.04 5792.56L1728.88 5792.85C1728.88 5793.08 1728.69 5793.27 1728.6 5793.49L1728.34 5794.1C1728.34 5794.42 1728.11 5794.74 1728.05 5795.06V5796.09V5796.63V5796.82L1728.05 5796.83C1728.01 5797.38 1728.01 5797.94 1728.05 5798.49C1728.06 5799.35 1728.15 5800.21 1728.34 5801.05C1728.39 5801.34 1728.47 5801.61 1728.56 5801.89C1728.56 5801.89 1728.56 5802.18 1728.76 5802.34H1728.76C1728.91 5802.79 1729.09 5803.24 1729.3 5803.68V5804.03V5804.03C1729.44 5804.35 1729.61 5804.65 1729.81 5804.93C1730.06 5805.3 1730.33 5805.65 1730.61 5805.99C1731.06 5806.55 1731.55 5807.08 1732.09 5807.56L1732.63 5808.04C1732.98 5808.3 1733.35 5808.55 1733.72 5808.77L1734.23 5809.13C1733.38 5809.98 1732.48 5810.77 1731.51 5811.5C1728.65 5813.63 1725.55 5815.43 1722.29 5816.88L1721.39 5817.26C1718.12 5818.8 1714.76 5820.14 1711.33 5821.27L1707.87 5822.29C1703.66 5815.26 1699 5808.49 1693.94 5802.05C1699 5795.63 1703.65 5788.9 1707.87 5781.9L1711.33 5782.92C1712.16 5783.25 1713.08 5783.22 1713.88 5782.84C1714.68 5782.46 1715.29 5781.77 1715.56 5780.92C1715.83 5780.08 1715.74 5779.16 1715.31 5778.39C1714.88 5777.61 1714.14 5777.05 1713.28 5776.84L1711.14 5776.2C1721.55 5756.78 1723.25 5742.14 1715.91 5734.78C1708.57 5727.41 1693.94 5729.14 1674.52 5739.55C1673.46 5736.05 1672.32 5732.84 1671.13 5729.94C1674.16 5727.23 1675.67 5723.2 1675.16 5719.16C1674.66 5715.13 1672.21 5711.6 1668.6 5709.71C1665 5707.83 1660.7 5707.83 1657.1 5709.72C1654.62 5707.95 1651.66 5706.97 1648.61 5706.91C1638.2 5706.91 1629.07 5718.47 1622.69 5739.55C1619.84 5738.01 1617.09 5736.63 1614.56 5735.51L1614.56 5735.51C1612.96 5734.91 1611.18 5735.67 1610.49 5737.23C1609.81 5738.79 1610.47 5740.61 1611.99 5741.37C1614.78 5742.59 1617.79 5744.13 1620.96 5745.86C1619 5753.81 1617.54 5761.88 1616.58 5770.01C1608.45 5770.96 1600.39 5772.43 1592.45 5774.4C1583.32 5757.78 1580.76 5744.42 1586.05 5739.16C1587.98 5737.45 1590.48 5736.53 1593.06 5736.57C1594.83 5736.48 1596.19 5734.98 1596.11 5733.21C1596.02 5731.44 1594.51 5730.07 1592.74 5730.16C1588.49 5730.17 1584.4 5731.82 1581.34 5734.78C1573.97 5742.14 1575.67 5756.75 1586.08 5776.13C1565 5782.51 1553.47 5791.63 1553.47 5802.05C1553.47 5812.46 1565 5821.59 1586.08 5827.96L1586.08 5827.96ZM1745.67 5798.62C1745.66 5800.21 1745.03 5801.74 1743.9 5802.86C1742.77 5803.98 1741.24 5804.61 1739.65 5804.61H1739.26C1738.74 5804.57 1738.22 5804.45 1737.73 5804.26H1737.44C1737.15 5804.14 1736.87 5804 1736.61 5803.84L1736.29 5803.65C1735.92 5803.4 1735.59 5803.11 1735.29 5802.78C1734.87 5802.31 1734.52 5801.77 1734.27 5801.18V5800.89V5800.89C1734.16 5800.6 1734.07 5800.3 1734.01 5800V5799.8C1733.77 5798.5 1733.97 5797.16 1734.59 5795.99C1734.79 5795.61 1735.04 5795.26 1735.32 5794.94C1735.63 5794.6 1735.98 5794.3 1736.35 5794.04C1737.29 5793.38 1738.41 5793.01 1739.55 5792.98C1741.1 5792.95 1742.6 5793.52 1743.74 5794.57C1744.88 5795.62 1745.57 5797.07 1745.67 5798.62ZM1643.49 5760.85C1640.57 5763.25 1637.66 5765.75 1634.71 5768.41C1630.93 5768.6 1627.02 5768.89 1623.11 5769.28H1623.11C1623.97 5762.54 1625.17 5755.86 1626.73 5749.26C1632.52 5752.82 1638.11 5756.69 1643.49 5760.85ZM1670.49 5749.26C1672.06 5755.86 1673.27 5762.54 1674.11 5769.28C1670.17 5768.93 1666.29 5768.6 1662.51 5768.41C1659.63 5765.78 1656.68 5763.29 1653.77 5760.82C1659.13 5756.67 1664.71 5752.81 1670.49 5749.26ZM1670.49 5854.97C1664.71 5851.4 1659.13 5847.53 1653.77 5843.37C1656.72 5840.94 1659.63 5838.4 1662.51 5835.78C1666.29 5835.59 1670.17 5835.3 1674.11 5834.91C1673.26 5841.62 1672.06 5848.27 1670.49 5854.84L1670.49 5854.97ZM1622.44 5775.87L1627.44 5775.43L1624.65 5778.15L1621.93 5780.94C1622.02 5779.11 1622.18 5777.44 1622.38 5775.78L1622.44 5775.87ZM1674.94 5775.87C1675.1 5777.54 1675.29 5779.08 1675.42 5780.87L1672.73 5778.12L1669.94 5775.39L1674.94 5775.87ZM1674.94 5828.41L1669.98 5828.86L1672.76 5826.14L1675.46 5823.38C1675.2 5825.01 1675.04 5826.65 1674.85 5828.31L1674.94 5828.41ZM1682.63 5798.27C1683.72 5799.55 1684.78 5800.86 1685.83 5802.14C1684.78 5803.42 1683.75 5804.74 1682.63 5806.02V5802.14C1682.63 5800.83 1682.57 5799.45 1682.57 5798.17L1682.63 5798.27ZM1660.02 5774.82C1662.71 5777.28 1665.4 5779.85 1668.22 5782.67C1671.03 5785.49 1673.5 5788.08 1676.03 5790.8C1676.03 5794.49 1676.29 5798.27 1676.29 5802.14C1676.29 5806.02 1676.29 5809.77 1676.03 5813.48C1673.5 5816.24 1670.88 5818.96 1668.22 5821.62C1665.56 5824.28 1662.71 5827 1660.02 5829.47C1652.62 5829.79 1644.77 5829.79 1637.43 5829.47C1634.77 5827.04 1632.08 5824.47 1629.23 5821.62C1626.38 5818.77 1623.82 5816.08 1621.38 5813.42C1621.38 5809.74 1621.13 5805.96 1621.13 5802.15C1621.13 5798.33 1621.13 5794.55 1621.38 5790.87C1623.82 5788.21 1626.38 5785.52 1629.23 5782.67C1632.08 5779.82 1634.77 5777.26 1637.43 5774.82C1644.67 5774.4 1652.52 5774.4 1659.92 5774.72L1660.02 5774.82ZM1614.66 5805.86C1613.6 5804.61 1612.54 5803.33 1611.45 5802.05C1612.51 5800.76 1613.54 5799.48 1614.66 5798.23V5802.05V5805.86ZM1624.59 5826.07L1627.37 5828.79L1622.38 5828.35C1622.22 5826.68 1622.03 5825.14 1621.9 5823.32L1624.59 5826.07ZM1623.11 5834.82C1627.05 5835.17 1630.93 5835.49 1634.71 5835.68C1637.66 5838.34 1640.57 5840.84 1643.49 5843.24H1643.49C1638.11 5847.4 1632.52 5851.27 1626.73 5854.84C1625.17 5848.23 1623.96 5841.55 1623.11 5834.82ZM1644.8 5836H1652.49C1651.21 5837.09 1649.93 5838.15 1648.64 5839.21L1644.8 5836ZM1682.25 5815.98C1684.91 5813.07 1687.44 5810.12 1689.84 5807.17C1694.01 5812.54 1697.9 5818.14 1701.47 5823.93C1694.85 5825.55 1688.14 5826.8 1681.38 5827.67C1681.61 5823.73 1682.06 5819.86 1682.25 5815.98ZM1682.25 5788.14C1682.06 5784.27 1681.77 5780.39 1681.38 5776.58C1688.14 5777.41 1694.85 5778.62 1701.47 5780.2C1697.9 5785.99 1694.02 5791.58 1689.84 5796.95C1687.41 5793.97 1684.81 5791.06 1682.25 5788.11L1682.25 5788.14ZM1652.49 5768.09H1644.8L1648.64 5764.89L1652.49 5768.09ZM1614.98 5788.18C1612.45 5790.96 1609.92 5793.91 1607.42 5796.92C1603.24 5791.56 1599.35 5785.96 1595.79 5780.17C1602.4 5778.56 1609.1 5777.3 1615.84 5776.42C1615.49 5780.39 1615.17 5784.27 1614.98 5788.18ZM1607.45 5807.17C1609.95 5810.18 1612.48 5813.13 1615.01 5815.92C1615.2 5819.79 1615.49 5823.67 1615.88 5827.54C1609.13 5826.7 1602.44 5825.49 1595.82 5823.93C1599.39 5818.13 1603.27 5812.54 1607.45 5807.17ZM1582.88 5837.03C1583.65 5837.03 1584.41 5837.18 1585.12 5837.47C1586.83 5838.2 1588.11 5839.67 1588.59 5841.46C1589.07 5843.25 1588.7 5845.16 1587.58 5846.64C1586.47 5848.12 1584.73 5849.01 1582.88 5849.04C1582.35 5849.04 1581.82 5848.97 1581.31 5848.82C1579.41 5848.32 1577.87 5846.92 1577.19 5845.08C1576.51 5843.23 1576.79 5841.16 1577.92 5839.56C1579.06 5837.95 1580.91 5837.01 1582.88 5837.03ZM1585.89 5864.8C1583.76 5862.18 1582.82 5858.79 1583.3 5855.45H1584.45H1585.54C1585.97 5855.34 1586.4 5855.21 1586.82 5855.06L1587.85 5854.71C1588.24 5854.52 1588.63 5854.3 1589 5854.07C1589.29 5853.91 1589.61 5853.75 1589.9 5853.56V5853.56C1590.25 5853.3 1590.6 5853.02 1590.92 5852.72C1591.18 5852.5 1591.47 5852.31 1591.69 5852.05L1591.69 5852.05C1592 5851.71 1592.29 5851.36 1592.56 5850.99C1592.75 5850.74 1593 5850.48 1593.16 5850.22V5850.23C1593.41 5849.82 1593.64 5849.4 1593.84 5848.98C1593.84 5848.69 1594.16 5848.43 1594.29 5848.14C1594.48 5847.64 1594.64 5847.13 1594.77 5846.6C1594.77 5846.35 1594.96 5846.09 1594.99 5845.83L1594.99 5845.84C1595.44 5844.09 1595.49 5842.26 1595.12 5840.49V5839.91C1594.92 5839.12 1594.64 5838.34 1594.29 5837.6V5837.38C1593.94 5836.71 1593.53 5836.08 1593.07 5835.49L1592.72 5835.04C1592.2 5834.42 1591.62 5833.85 1590.99 5833.34C1591.63 5832.13 1592.24 5830.94 1592.88 5829.79V5829.79C1600.68 5831.71 1608.6 5833.14 1616.58 5834.08C1617.55 5842.2 1619.03 5850.26 1621 5858.2C1604.34 5867.39 1591.02 5869.93 1585.89 5864.8ZM1711.4 5864.8C1707.23 5869 1697.62 5868.16 1684.81 5862.49C1681.99 5861.24 1679.11 5859.77 1676.23 5858.2C1678.22 5850.26 1679.71 5842.21 1680.68 5834.08C1688.82 5833.13 1696.88 5831.65 1704.83 5829.66C1706.66 5832.86 1708.03 5836.07 1709.41 5838.88C1714.73 5851.25 1715.47 5860.7 1711.37 5864.8L1711.4 5864.8ZM1711.4 5739.26C1716.52 5744.39 1713.99 5757.75 1704.99 5774.5C1696.99 5772.48 1688.87 5770.98 1680.68 5770.01C1679.73 5761.89 1678.26 5753.83 1676.29 5745.89C1692.91 5736.7 1706.27 5734.17 1711.37 5739.29L1711.4 5739.26ZM1668.79 5720.62C1668.79 5721.71 1668.5 5722.79 1667.93 5723.72C1667.37 5724.66 1666.56 5725.43 1665.59 5725.94C1664.73 5726.41 1663.78 5726.65 1662.8 5726.64C1661.2 5726.65 1659.67 5726.02 1658.53 5724.9C1657.39 5723.77 1656.75 5722.24 1656.75 5720.64C1656.74 5719.04 1657.37 5717.51 1658.5 5716.37C1659.63 5715.24 1661.16 5714.6 1662.76 5714.6C1664.36 5714.59 1665.89 5715.23 1667.02 5716.36C1668.16 5717.49 1668.79 5719.02 1668.79 5720.62ZM1648.61 5713.32C1649.87 5713.33 1651.11 5713.64 1652.23 5714.21C1652.04 5714.5 1651.91 5714.82 1651.75 5715.14L1651.59 5715.56C1651.27 5716.27 1651.03 5717.01 1650.85 5717.77V5718.28C1650 5722.33 1651.23 5726.53 1654.14 5729.47C1657.05 5732.42 1661.24 5733.7 1665.3 5732.89H1665.52C1666.71 5735.9 1667.86 5739.29 1668.92 5742.88H1668.92C1661.91 5747.1 1655.17 5751.75 1648.74 5756.82C1642.31 5751.75 1635.57 5747.1 1628.56 5742.88C1633.75 5724.56 1641.37 5713.32 1648.61 5713.32ZM1589.35 5781.83C1593.56 5788.87 1598.22 5795.62 1603.31 5802.05C1598.22 5808.47 1593.56 5815.23 1589.35 5822.26C1571.12 5816.91 1559.88 5809.29 1559.88 5802.05C1559.88 5794.81 1571.12 5787.15 1589.35 5781.83Z" fill="#D8D8D8"/>
<path d="M1604.72 5731.96C1604.23 5731.77 1603.71 5731.63 1603.19 5731.54C1601.42 5731.22 1599.73 5732.4 1599.41 5734.17C1599.09 5735.94 1600.26 5737.63 1602.03 5737.95H1602.55C1603.36 5738.34 1604.31 5738.37 1605.15 5738.03C1605.98 5737.69 1606.64 5737.01 1606.95 5736.16C1607.26 5735.31 1607.19 5734.36 1606.77 5733.56C1606.35 5732.76 1605.6 5732.18 1604.72 5731.96Z" fill="#D8D8D8"/>
<path d="M1636.21 5802.05C1636.2 5805.34 1637.51 5808.51 1639.84 5810.85C1642.16 5813.18 1645.32 5814.5 1648.62 5814.51C1651.92 5814.51 1655.08 5813.21 1657.42 5810.88C1659.75 5808.55 1661.07 5805.39 1661.07 5802.09C1661.07 5798.79 1659.77 5795.63 1657.44 5793.29C1655.1 5790.96 1651.94 5789.65 1648.64 5789.65C1645.35 5789.65 1642.2 5790.95 1639.87 5793.28C1637.53 5795.6 1636.22 5798.76 1636.21 5802.05H1636.21ZM1648.64 5796.06C1650.24 5796.06 1651.78 5796.69 1652.91 5797.82C1654.03 5798.96 1654.67 5800.49 1654.67 5802.09C1654.66 5803.69 1654.02 5805.22 1652.89 5806.35C1651.76 5807.48 1650.22 5808.11 1648.62 5808.1C1647.02 5808.09 1645.49 5807.45 1644.36 5806.32C1643.24 5805.18 1642.61 5803.64 1642.62 5802.05C1642.63 5800.46 1643.26 5798.94 1644.38 5797.82C1645.51 5796.7 1647.02 5796.06 1648.61 5796.06L1648.64 5796.06Z" fill="#D8D8D8"/>
<path d="M1707.28 7053.3V6880.51C1707.28 6879.63 1706.93 6878.78 1706.31 6878.16C1705.69 6877.54 1704.84 6877.19 1703.96 6877.19H1602.21C1600.37 6877.19 1598.89 6878.67 1598.89 6880.51V7053.3C1598.89 7054.19 1599.24 7055.03 1599.86 7055.65C1600.48 7056.28 1601.33 7056.63 1602.21 7056.63H1703.96C1704.84 7056.63 1705.69 7056.28 1706.31 7055.65C1706.93 7055.03 1707.28 7054.19 1707.28 7053.3ZM1605.53 6903.2H1700.64V7014.06H1605.53V6903.2ZM1700.64 6883.83V6896.56H1605.53V6883.83H1700.64ZM1605.53 7049.98V7020.71H1700.64V7049.98H1605.53Z" fill="#D8D8D8"/>
<path d="M1653.09 7023.4C1649.78 7023.4 1646.61 7024.71 1644.27 7027.05C1641.94 7029.38 1640.62 7032.55 1640.62 7035.86C1640.62 7039.16 1641.94 7042.33 1644.27 7044.67C1646.61 7047.01 1649.78 7048.32 1653.09 7048.32C1656.39 7048.32 1659.56 7047.01 1661.9 7044.67C1664.23 7042.33 1665.55 7039.16 1665.55 7035.86C1665.55 7032.55 1664.23 7029.38 1661.9 7027.05C1659.56 7024.71 1656.39 7023.4 1653.09 7023.4ZM1653.09 7041.67C1651.54 7041.67 1650.06 7041.06 1648.97 7039.97C1647.88 7038.88 1647.27 7037.4 1647.27 7035.86C1647.27 7034.31 1647.88 7032.84 1648.97 7031.75C1650.06 7030.66 1651.54 7030.04 1653.09 7030.04C1654.63 7030.04 1656.11 7030.66 1657.2 7031.75C1658.29 7032.84 1658.9 7034.31 1658.9 7035.86C1658.9 7037.4 1658.29 7038.88 1657.2 7039.97C1656.11 7041.06 1654.63 7041.67 1653.09 7041.67Z" fill="#D8D8D8"/>
</svg>
