<svg width="343" height="431" viewBox="0 0 343 431" fill="none" xmlns="http://www.w3.org/2000/svg">
<g clip-path="url(#clip0_30_125)">
<path d="M169.437 425.211C167.386 424.391 118.702 404.561 74.3025 347.079C33.5045 294.247 -10.8491 198.246 9.61824 41.117L9.84616 39.2481L11.3049 38.1085C13.0827 36.7409 55.7041 4.55835 171.078 4.55835C286.452 4.55835 329.074 36.7409 330.851 38.1085L332.31 39.2481L332.538 41.117C343.843 127.864 341.792 251.307 267.854 347.079C223.455 404.561 174.77 424.391 172.719 425.211L171.033 425.895L169.346 425.211H169.437Z" fill="#1B1B1B"/>
<path d="M171.124 9.11688C286.224 9.11688 328.071 41.7097 328.071 41.7097C367.319 342.886 171.124 420.972 171.124 420.972C171.124 420.972 -25.0714 342.886 14.1767 41.7097C14.1767 41.7097 56.0232 9.11688 171.124 9.11688ZM171.124 0C54.2454 0 10.3476 33.1398 8.56983 34.553L5.60685 36.8322L5.10542 40.5245C-6.29068 128.138 -4.1938 252.902 70.7014 349.86C115.875 408.345 165.654 428.63 167.751 429.451L171.124 430.772L174.497 429.451C176.594 428.63 226.372 408.345 271.546 349.86C346.441 252.902 348.538 128.138 337.142 40.5245L336.641 36.8322L333.678 34.553C331.854 33.1398 288.002 0 171.124 0Z" fill="#1E1E1C"/>
<path d="M170.258 423.114C169.756 422.932 120.115 402.692 76.0802 345.712C2.68935 250.577 0.638052 127.727 11.8974 41.4362L12.0342 40.5245L12.7635 39.9319C14.4957 38.5644 56.5701 6.83765 171.124 6.83765C285.677 6.83765 327.752 38.5644 329.484 39.9319L330.213 40.5245L330.35 41.4362C341.609 127.727 339.558 250.577 266.122 345.712C222.087 402.738 172.446 422.932 171.944 423.114L171.078 423.433L170.212 423.114H170.258Z" fill="#1B1B1B"/>
<path d="M171.124 9.11679C286.224 9.11679 328.071 41.7096 328.071 41.7096C367.319 342.886 171.124 420.972 171.124 420.972C171.124 420.972 -25.0715 342.886 14.1766 41.7096C14.1766 41.7096 56.0231 9.11679 171.124 9.11679ZM171.124 4.55835C55.7952 4.55835 13.1282 36.7409 11.3504 38.1085L9.89169 39.2481L9.66377 41.117C-1.64116 127.864 0.41014 251.352 74.3024 347.079C97.4593 377.074 122.029 396.675 138.531 407.843C156.537 420.014 168.936 424.983 169.437 425.211L171.124 425.895L172.81 425.211C173.312 424.983 185.756 420.014 203.716 407.843C220.218 396.675 244.742 377.074 267.945 347.079C341.883 251.352 343.934 127.864 332.629 41.117L332.401 39.2481L330.943 38.1085C329.165 36.7409 286.543 4.55835 171.169 4.55835H171.124Z" fill="white"/>
<path d="M171.124 418.51C164.468 415.593 119.705 394.761 79.5447 342.703C7.52142 249.21 5.33336 128.32 16.2736 42.986C22.3363 38.8378 66.3709 11.396 171.124 11.396C275.877 11.396 319.866 38.8378 325.974 42.986C336.96 128.366 334.772 249.347 262.52 342.886C222.406 394.852 177.779 415.593 171.124 418.51Z" fill="#1B1B1B"/>
<path d="M171.124 13.6754C271.409 13.6754 315.535 38.9291 323.832 44.3081C343.25 196.833 300.447 289.826 261.062 341.062C222.725 390.886 180.058 411.946 171.124 416.003C162.189 411.992 119.522 390.886 81.1858 341.062C10.0741 248.617 7.65817 129.049 18.4161 44.3081C26.7124 38.8835 70.8837 13.6754 171.124 13.6754ZM171.124 9.11694C56.0232 9.11694 14.1767 41.7098 14.1767 41.7098C-25.0714 342.886 171.124 420.972 171.124 420.972C171.124 420.972 367.319 342.886 328.071 41.7098C328.071 41.7098 286.224 9.11694 171.124 9.11694Z" fill="#1E1E1C"/>
<path d="M171.124 360.344C160.776 355.786 57.6641 306.418 52.8322 145.323C59.3507 142.132 93.5846 127.408 171.124 127.408C248.663 127.408 282.897 142.132 289.415 145.323C284.583 306.555 181.471 355.786 171.124 360.344Z" fill="#E3E2E2"/>
<path d="M171.124 129.733C244.013 129.733 278.293 142.77 287.091 146.782C284.173 233.073 252.72 285.86 226.691 315.079C202.121 342.658 177.642 354.92 171.124 357.883C164.651 354.92 140.172 342.658 115.556 315.079C89.5278 285.86 58.0746 233.073 55.1572 146.782C63.9094 142.77 97.8242 129.733 171.124 129.733ZM171.124 125.175C82.6902 125.175 50.5076 144.001 50.5076 144.001C55.066 317.586 171.124 362.852 171.124 362.852C171.124 362.852 287.182 317.586 291.74 144.001C291.74 144.001 259.558 125.175 171.124 125.175Z" fill="white"/>
<path d="M106.394 306.464C106.394 306.464 149.198 358.977 171.124 360.071C193.05 361.165 237.631 306.464 237.631 306.464C193.961 303.41 150.109 303.41 106.394 306.464Z" fill="#C79375"/>
<path d="M171.124 134.291C232.207 134.291 265.438 143.317 279.797 148.696C281.347 149.289 282.35 150.702 282.304 152.252C275.603 289.689 196.788 339.923 172.765 352.048C172.218 352.322 171.671 352.458 171.124 352.458C170.577 352.458 169.984 352.322 169.483 352.048C145.505 339.923 66.6443 289.734 59.9434 152.252C59.8523 150.702 60.8551 149.289 62.4506 148.696C76.8097 143.317 110.041 134.291 171.124 134.291ZM171.124 125.175C108.354 125.175 73.9378 134.656 59.2597 140.172C54.063 142.132 50.5986 147.146 50.8721 152.708C57.8921 296.298 142.36 348.538 165.38 360.162C167.203 361.074 169.164 361.53 171.124 361.53C173.084 361.53 175.044 361.074 176.867 360.162C199.887 348.538 284.401 296.298 291.375 152.708C291.649 147.146 288.184 142.132 282.988 140.172C268.31 134.656 233.848 125.175 171.124 125.175Z" fill="#E3E2E2"/>
<path d="M171.124 129.733C244.013 129.733 278.293 142.77 287.091 146.782C284.173 233.073 252.72 285.86 226.691 315.079C202.121 342.658 177.642 354.92 171.124 357.883C164.651 354.92 140.172 342.658 115.556 315.079C89.5278 285.86 58.0746 233.073 55.1572 146.782C63.9094 142.77 97.8242 129.733 171.124 129.733ZM171.124 125.175C82.6902 125.175 50.5076 144.001 50.5076 144.001C55.066 317.586 171.124 362.852 171.124 362.852C171.124 362.852 287.182 317.586 291.74 144.001C291.74 144.001 259.558 125.175 171.124 125.175Z" fill="white"/>
<path d="M82.599 61.0379C77.1745 62.1319 71.7955 63.3171 66.4165 64.5935C65.9151 66.508 65.4593 68.377 65.0034 70.2915C62.9066 70.7929 60.8553 71.3399 58.804 71.8414C61.0376 61.7672 63.5903 51.6931 66.4165 41.6645C68.6502 41.1631 70.8838 40.6617 73.1175 40.2058C79.8639 48.1831 86.3825 56.2515 92.582 64.4567C90.4851 64.8214 88.3426 65.2316 86.2458 65.6419C85.0606 64.092 83.8298 62.5877 82.6446 61.0379H82.599ZM70.975 46.542C69.8354 50.7814 68.7414 55.0663 67.6929 59.3057C71.5676 58.394 75.4423 57.5735 79.3169 56.7529C76.5819 53.3341 73.8012 49.9153 70.975 46.542Z" fill="white"/>
<path d="M94.3141 40.9801C90.8953 41.5271 87.4764 42.1653 84.0576 42.8034C83.7841 41.2536 83.465 39.7037 83.1915 38.1538C92.5819 36.376 100.605 35.0997 110.132 33.8689C110.314 35.4188 110.542 36.9686 110.724 38.5641C107.306 39.0199 103.841 39.5214 100.422 40.0228C101.562 47.5442 102.747 55.0656 103.887 62.5871C101.927 62.9062 100.012 63.1797 98.052 63.4988C96.8212 55.9773 95.5449 48.5015 94.3141 40.9801Z" fill="white"/>
<path d="M140.354 58.4849C132.605 59.032 124.856 59.8069 117.106 60.7642C115.967 51.6473 114.873 42.5304 113.733 33.4135C121.938 32.4107 130.143 31.5902 138.394 30.9976C138.531 32.6842 138.622 34.3708 138.759 36.0118C132.651 36.4677 126.542 37.0147 120.48 37.6529C120.708 39.7498 120.935 41.8466 121.163 43.9435C126.953 43.3053 132.787 42.7583 138.577 42.3481C138.713 43.9435 138.805 45.5846 138.941 47.18C133.198 47.5903 127.454 48.1373 121.71 48.7755C121.938 50.8268 122.166 52.8781 122.394 54.9749C128.275 54.3368 134.155 53.7898 140.035 53.3795C140.172 55.0661 140.263 56.7983 140.4 58.4849H140.354Z" fill="white"/>
<path d="M165.881 29.7667C167.978 29.7667 170.03 29.7667 172.127 29.7211C172.127 38.9292 172.127 48.1372 172.127 57.2997C170.896 57.2997 169.711 57.2997 168.48 57.2997C162.964 51.1458 157.22 45.0831 151.249 39.1571C151.522 45.3566 151.796 51.556 152.069 57.7099C150.109 57.8011 148.149 57.8923 146.189 58.029C145.642 48.8666 145.141 39.7041 144.594 30.4961C146.28 30.4049 147.967 30.3137 149.653 30.2225C155.306 35.6471 160.776 41.2084 166.064 46.8153C165.973 41.1172 165.881 35.4192 165.836 29.6755L165.881 29.7667Z" fill="white"/>
<path d="M205.175 55.0199C201.757 57.5727 197.563 58.6211 193.096 58.4388C181.608 57.9373 176.776 50.9629 176.731 43.7606C176.731 36.6039 182.383 29.1736 194.372 29.7206C198.839 29.9029 203.033 31.5896 206.224 34.6437C204.765 35.6466 203.352 36.695 201.893 37.6979C199.888 35.7833 197.016 34.8261 194.144 34.6893C186.212 34.3246 182.702 39.2933 182.657 43.8974C182.657 48.4558 185.529 53.2422 193.278 53.6068C196.013 53.7436 199.158 52.9231 201.346 51.2364C202.623 52.5128 203.899 53.7892 205.13 55.0655L205.175 55.0199Z" fill="white"/>
<path d="M208.275 58.7132C209.004 49.5508 209.734 40.3883 210.463 31.2258C212.514 31.4082 214.566 31.5449 216.617 31.7728C215.797 40.9353 214.93 50.0522 214.11 59.2146C212.15 59.0323 210.235 58.85 208.275 58.7132Z" fill="white"/>
<path d="M253.267 50.6898C251.899 57.7098 245.791 63.7726 234.987 62.2683C224.184 60.8096 219.808 53.4249 220.537 46.2226C221.221 39.0202 227.512 32.2737 238.953 33.8236C250.304 35.4191 254.634 43.6698 253.267 50.7354V50.6898ZM226.463 46.9063C226.098 51.4192 228.332 56.5246 235.671 57.5275C243.01 58.5759 246.566 54.2454 247.386 49.7782C248.253 45.2197 246.019 39.5672 238.315 38.4732C230.611 37.4248 226.873 42.3023 226.463 46.9063Z" fill="white"/>
<path d="M281.529 42.2114C283.58 42.6672 285.586 43.1686 287.637 43.6701C285.449 52.6046 283.261 61.5392 281.028 70.4737C279.843 70.2002 278.657 69.8811 277.472 69.6076C273.552 62.3141 269.404 55.0206 265.028 47.8183C263.797 53.881 262.612 59.9893 261.381 66.052C259.466 65.6873 257.506 65.2771 255.592 64.958C257.278 55.9323 258.965 46.9066 260.606 37.8809C262.247 38.2 263.934 38.519 265.575 38.8381C269.814 45.4935 273.825 52.1488 277.609 58.8953C278.885 53.334 280.207 47.7727 281.484 42.2114H281.529Z" fill="white"/>
<path d="M76.9009 112.412C74.7128 115.83 71.4308 117.973 67.5105 119.021C57.4819 121.756 51.1913 116.423 49.0032 109.54C46.8152 102.702 49.5047 94.0866 60.0802 91.2604C64.0461 90.212 68.1487 90.6222 71.7498 92.6279C70.7926 93.9955 69.8353 95.363 68.9236 96.7761C66.5988 95.5453 63.8637 95.363 61.3566 96.0468C54.3822 97.9157 52.8323 103.614 54.1999 107.99C55.5218 112.366 59.4876 116.104 66.2797 114.281C68.6501 113.642 71.1572 112.001 72.5248 109.768C73.9835 110.634 75.4878 111.5 76.9465 112.366L76.9009 112.412Z" fill="white"/>
<path d="M80.6388 115.055C78.5419 106.121 76.4906 97.1407 74.3937 88.2061C76.2171 87.7959 78.0405 87.3856 79.8639 86.9753C81.824 95.9555 83.7841 104.936 85.7442 113.916C84.012 114.28 82.3254 114.691 80.6388 115.055Z" fill="white"/>
<path d="M110.907 81.4143C111.636 86.6109 112.411 91.8531 113.141 97.0498C114.28 105.118 109.858 109.95 102.93 111.135C96.3199 112.275 89.9381 109.494 88.2059 101.38C87.1575 96.2292 86.0634 91.0782 85.015 85.9272C86.8384 85.5625 88.6617 85.1978 90.5307 84.8331C91.5336 89.9842 92.5364 95.1808 93.4937 100.332C94.451 105.209 97.7786 107.215 102.109 106.486C106.44 105.756 108.491 102.52 107.762 97.8703C106.941 92.6736 106.121 87.477 105.3 82.2804C107.123 82.0069 108.992 81.7334 110.816 81.4599L110.907 81.4143Z" fill="white"/>
<path d="M143.408 91.5332C144.001 98.5076 140.126 105.756 130.463 106.713C127.044 107.077 122.941 107.533 119.568 107.989C118.383 98.8723 117.152 89.7554 115.967 80.6841C119.613 80.1827 123.99 79.6813 127.636 79.3166C137.847 78.2682 142.861 84.7867 143.454 91.5332H143.408ZM124.172 102.382C126.086 102.154 128.047 101.926 129.961 101.744C136.343 101.106 138.485 96.3652 138.03 91.8979C137.574 87.6585 134.52 83.5559 128.138 84.1941C126.132 84.422 124.126 84.65 122.121 84.8779C122.804 90.7127 123.488 96.5475 124.217 102.382H124.172Z" fill="white"/>
<path d="M167.568 99.3736C162.645 99.4192 157.722 99.6015 152.799 99.8294C152.069 101.607 151.34 103.385 150.656 105.163C148.742 105.254 146.873 105.391 144.958 105.527C148.514 96.0915 152.343 86.6556 156.446 77.3108C158.497 77.2196 160.548 77.174 162.554 77.1284C167.203 86.1997 171.625 95.3622 175.728 104.57C173.813 104.57 171.899 104.57 169.984 104.57C169.209 102.838 168.389 101.106 167.568 99.3736ZM159.682 82.9632C157.995 86.9291 156.309 90.8949 154.713 94.9063C158.269 94.7696 161.779 94.6328 165.335 94.5872C163.511 90.7126 161.597 86.8379 159.682 83.0088V82.9632Z" fill="white"/>
<path d="M204.537 91.7153C204.081 98.6897 199.249 105.299 189.54 104.889C186.121 104.752 182.018 104.616 178.554 104.57C178.691 95.4076 178.827 86.1996 178.964 77.0371C182.611 77.0827 187.033 77.2194 190.679 77.3562C200.936 77.812 204.947 84.9688 204.537 91.7153ZM183.933 99.6926C185.893 99.7381 187.808 99.8293 189.722 99.8749C196.104 100.148 198.93 95.8179 199.113 91.305C199.295 87.0201 196.879 82.5528 190.451 82.2793C188.446 82.1881 186.394 82.1426 184.389 82.0514C184.206 87.9318 184.07 93.8122 183.887 99.6926H183.933Z" fill="white"/>
<path d="M227.375 102.975C222.497 102.337 217.574 101.744 212.651 101.288C211.694 102.929 210.737 104.57 209.779 106.257C207.865 106.075 205.996 105.938 204.081 105.756C208.959 96.9123 214.11 88.1601 219.534 79.499C221.586 79.7269 223.591 79.9549 225.643 80.1828C228.97 89.8467 231.979 99.5561 234.714 109.266C232.799 108.992 230.93 108.673 229.016 108.445C228.469 106.622 227.922 104.798 227.375 102.975ZM221.95 85.6073C219.671 89.2997 217.483 92.992 215.295 96.6843C218.805 97.049 222.361 97.4593 225.871 97.9151C224.594 93.8125 223.318 89.7099 221.95 85.6073Z" fill="white"/>
<path d="M260.743 85.9727C262.566 86.3374 264.435 86.7477 266.258 87.1579C264.253 96.138 262.293 105.118 260.287 114.098C259.238 113.87 258.144 113.642 257.05 113.415C253.54 106.303 249.757 99.2834 245.791 92.2634C244.743 98.3717 243.649 104.48 242.6 110.588C240.868 110.269 239.136 109.996 237.403 109.722C238.862 100.651 240.321 91.5796 241.78 82.5083C243.284 82.7362 244.788 83.0097 246.292 83.2377C250.121 89.665 253.768 96.1836 257.233 102.702C258.372 97.0953 259.557 91.534 260.697 85.9271L260.743 85.9727Z" fill="white"/>
<path d="M285.814 115.191C281.028 113.824 276.241 112.547 271.409 111.362C270.224 112.867 268.993 114.325 267.808 115.83C265.939 115.374 264.07 114.963 262.201 114.508C268.31 106.485 274.691 98.5531 281.347 90.8037C283.353 91.3051 285.313 91.8522 287.318 92.3992C289.233 102.428 290.828 112.502 292.196 122.53C290.327 121.983 288.504 121.391 286.635 120.844C286.361 118.975 286.088 117.06 285.768 115.191H285.814ZM282.897 97.1855C280.116 100.513 277.381 103.841 274.691 107.169C278.156 108.035 281.62 108.946 285.039 109.904C284.355 105.664 283.672 101.425 282.897 97.1399V97.1855Z" fill="white"/>
<path d="M55.704 248.48C56.5701 246.93 57.0259 244.058 56.3877 241.414C55.5672 238.041 54.0629 237.084 52.6042 237.95C50.872 238.999 50.9632 241.87 51.4646 244.97C52.2396 250.395 52.6498 255.637 48.1825 258.873C44.0799 261.927 40.7067 258.6 39.1568 252.993C37.7437 247.887 37.9716 242.964 41.1625 238.679C41.9831 239.637 42.8492 240.64 43.6697 241.597C41.8007 244.15 41.5728 247.751 42.3933 250.759C43.2138 253.722 44.8093 255.819 46.815 254.36C48.5928 253.084 48.6384 250.212 48.0458 246.748C47.1797 241.415 47.2709 235.944 51.7381 233.255C55.8407 230.793 58.4846 234.896 59.5786 239.318C60.4447 243.101 60.5815 247.386 58.1655 251.078C57.345 250.212 56.5245 249.346 55.704 248.48Z" fill="white"/>
<path d="M43.989 266.532C50.0518 261.746 56.2512 257.324 62.5419 253.267C62.9977 254.726 63.408 256.139 63.9094 257.552C57.7099 261.655 51.6016 266.122 45.6301 270.954C45.0831 269.495 44.5361 267.991 44.0346 266.532H43.989Z" fill="white"/>
<path d="M66.4163 278.931C67.1001 277.427 67.1912 274.692 66.234 272.321C65.0032 269.267 63.4077 268.492 62.0402 269.495C60.4903 270.635 60.9462 273.279 61.7667 276.105C63.2254 281.074 64.2282 285.906 60.2168 289.37C56.4789 292.606 52.7866 289.871 50.5529 284.857C48.5016 280.253 48.137 275.649 50.7809 271.364C51.7381 272.185 52.6498 273.005 53.6071 273.826C52.0572 276.378 52.2851 279.752 53.4703 282.441C54.6099 285.085 56.4789 286.908 58.3023 285.358C59.8977 283.991 59.5786 281.301 58.6214 278.156C57.1171 273.324 56.4789 268.173 60.5815 265.256C64.365 262.612 67.4647 266.167 69.1058 270.088C70.4277 273.507 71.1115 277.472 69.1969 281.119C68.2853 280.39 67.328 279.706 66.4163 278.977V278.931Z" fill="white"/>
<path d="M73.4821 290.236C72.3881 288.093 71.294 285.905 70.2456 283.672C71.2485 282.897 72.2057 282.122 73.2086 281.393C75.9892 287.41 78.542 292.287 81.7785 297.894C80.8668 298.669 79.9095 299.444 78.9978 300.265C77.8126 298.213 76.6274 296.162 75.4878 294.019C70.9294 297.849 66.4621 301.86 62.086 306.145C61.3566 304.869 60.5817 303.547 59.8979 302.27C64.3196 298.031 68.8781 294.019 73.4821 290.236Z" fill="white"/>
<path d="M77.1745 328.8C73.7556 324.333 70.428 319.638 67.3282 314.76C72.3881 309.518 77.6303 304.595 83.0093 300.037C85.8355 304.777 88.7985 309.336 91.9438 313.712C91.0321 314.578 90.0749 315.444 89.1632 316.31C86.7928 313.028 84.468 309.609 82.2799 306.099C81.0491 307.193 79.864 308.287 78.6788 309.427C80.8668 312.846 83.146 316.128 85.4708 319.319C84.6047 320.185 83.7386 321.097 82.8725 321.963C80.5021 318.726 78.1773 315.444 75.9437 312.025C74.8041 313.165 73.6189 314.305 72.4793 315.444C74.8497 319 77.3112 322.464 79.8184 325.837C78.9067 326.795 78.0406 327.798 77.1745 328.8Z" fill="white"/>
<path d="M101.516 334.452C98.0065 334.954 94.4509 335.501 90.9409 336.002C90.7585 335.82 90.5762 335.592 90.3939 335.41C90.8497 331.353 91.4423 327.387 92.1716 323.421C88.6161 327.022 85.1972 330.806 81.8696 334.726C80.9579 333.632 80.0918 332.538 79.2257 331.444C83.8753 326.065 88.7528 321.005 93.7671 316.264C94.6788 317.495 95.6361 318.726 96.5478 319.957C95.7728 323.74 95.1346 327.569 94.5876 331.489C98.052 330.988 101.516 330.487 104.981 330.031C105.984 331.125 106.987 332.219 107.989 333.313C103.385 338.19 98.9637 343.432 94.7244 348.948C93.7671 347.991 92.8098 346.988 91.8526 346.031C94.9523 342.019 98.1888 338.19 101.516 334.544V334.452Z" fill="white"/>
<path d="M110.907 358.385C108.126 356.06 105.391 353.689 102.702 351.182C101.471 351.82 100.24 352.413 99.0548 353.051C98.0063 352.048 96.9579 351.045 95.9095 349.997C102.382 346.715 108.947 343.615 115.511 340.698C116.514 341.655 117.516 342.567 118.565 343.478C116.468 350.453 114.736 357.746 113.459 365.268C112.32 364.402 111.226 363.536 110.086 362.624C110.36 361.211 110.633 359.752 110.907 358.339V358.385ZM114.28 345.302C111.545 346.624 108.764 347.991 106.029 349.404C107.944 351.182 109.858 352.869 111.773 354.51C112.502 351.364 113.323 348.31 114.234 345.302H114.28Z" fill="white"/>
<path d="M247.022 315.535C249.62 318.498 252.127 321.598 254.498 324.834C258.235 329.894 256.959 335.683 252.674 339.239C248.572 342.703 243.603 342.43 240.412 337.188C238.315 333.86 236.127 330.715 233.848 327.706C234.805 326.931 235.808 326.156 236.765 325.336C239.136 328.344 241.415 331.49 243.512 334.817C245.517 337.917 248.253 338.373 250.851 336.139C253.449 333.951 253.677 330.669 251.58 327.752C249.255 324.47 246.839 321.37 244.287 318.407C245.198 317.495 246.11 316.538 246.976 315.626L247.022 315.535Z" fill="white"/>
<path d="M258.327 301.495C259.102 300.355 259.922 299.215 260.652 298.03C265.803 302.999 270.726 308.469 275.33 314.441C274.783 315.17 274.236 315.945 273.643 316.674C268.082 315.899 262.475 315.17 256.914 314.441C260.013 318.087 262.931 321.962 265.757 326.019C264.8 327.068 263.797 328.116 262.794 329.164C258.783 323.102 254.407 317.495 249.757 312.389C250.486 311.569 251.17 310.748 251.854 309.928C257.05 310.384 262.201 310.885 267.352 311.341C264.435 307.831 261.381 304.549 258.281 301.449L258.327 301.495Z" fill="white"/>
<path d="M277.837 311.068C273.142 305.142 268.082 299.672 262.84 294.795C263.569 293.61 264.298 292.379 265.028 291.148C270.407 296.025 275.558 301.404 280.39 307.33C279.569 308.607 278.703 309.838 277.837 311.068Z" fill="white"/>
<path d="M290.874 281.985C291.558 286.088 290.874 290.008 289.187 293.244C284.766 301.541 278.794 300.082 274.783 295.979C270.68 291.74 268.31 284.629 271.683 276.879C272.959 273.962 275.011 271.774 277.7 270.862C278.065 272.412 278.429 273.916 278.749 275.466C277.016 276.013 275.649 277.518 274.783 279.432C272.412 284.629 274.19 289.415 276.925 292.105C279.569 294.703 283.489 295.706 286.316 290.19C287.318 288.23 287.774 285.404 287.318 282.805C288.504 282.532 289.689 282.258 290.828 281.985H290.874Z" fill="white"/>
<path d="M292.743 249.302C297.894 252.994 301.996 261.518 298.942 270.453C295.797 279.296 289.734 278.658 285.13 274.646C280.481 270.544 277.153 263.205 279.341 254.908C281.438 246.612 287.501 245.427 292.743 249.302ZM286.817 270.316C289.78 272.686 293.791 273.507 295.797 267.626C297.757 261.7 294.885 256.549 291.694 254.133C288.412 251.581 284.173 251.49 282.623 257.233C281.028 262.931 283.717 267.809 286.817 270.316Z" fill="white"/>
<path d="M195.593 254.465C199.961 254.465 203.753 253.767 206.968 252.369C210.218 250.971 213.258 248.769 216.089 245.764C216.263 245.589 216.438 245.397 216.613 245.188C216.787 244.978 216.962 244.768 217.137 244.559C218.535 242.951 219.601 241.291 220.334 239.579C221.103 237.832 221.488 236.154 221.488 234.547C221.488 232.59 220.981 230.755 219.967 229.043C218.954 227.296 217.329 225.671 215.093 224.168L199.891 213.58C197.445 211.867 194.912 211.011 192.291 211.011C189.705 211.011 187.364 212.077 185.267 214.209L181.755 217.721C180.986 218.489 180.217 218.891 179.449 218.926C178.68 218.961 177.824 218.612 176.88 217.878C175.972 217.249 174.888 216.41 173.63 215.362C172.407 214.314 171.132 213.195 169.804 212.007C168.511 210.819 167.34 209.683 166.292 208.6C165.208 207.552 164.143 206.468 163.094 205.35C162.046 204.197 161.067 203.061 160.159 201.943C159.25 200.825 158.464 199.794 157.8 198.85C157.101 197.872 156.769 196.998 156.804 196.229C156.839 195.461 157.241 194.709 158.01 193.976L161.522 190.464C163.618 188.367 164.667 186.008 164.667 183.387C164.702 180.766 163.863 178.25 162.151 175.839L151.091 160.114C149.658 158.052 148.033 156.532 146.216 155.553C144.434 154.54 142.547 154.016 140.555 153.981C137.2 153.946 133.898 155.309 130.648 158.069C130.438 158.244 130.246 158.419 130.071 158.594C129.896 158.733 129.722 158.873 129.547 159.013C126.437 161.948 124.165 165.041 122.733 168.291C121.3 171.541 120.584 175.542 120.584 180.295C120.584 185.396 121.492 190.673 123.309 196.125C125.126 201.576 127.905 207.115 131.644 212.741C135.383 218.367 140.1 224.011 145.797 229.672C151.493 235.263 157.136 239.893 162.727 243.563C168.354 247.232 173.91 249.958 179.396 251.74C184.883 253.557 190.282 254.465 195.593 254.465ZM195.488 245.345C191.26 245.38 186.787 244.524 182.069 242.776C177.387 241.064 172.564 238.513 167.602 235.123C162.675 231.734 157.748 227.61 152.82 222.753C147.858 217.86 143.647 212.916 140.188 207.919C136.763 202.886 134.16 197.977 132.378 193.189C130.63 188.402 129.792 183.894 129.862 179.665C129.896 177.08 130.368 174.686 131.277 172.484C132.22 170.283 133.601 168.396 135.418 166.823C135.593 166.648 135.785 166.491 135.994 166.351C136.204 166.177 136.414 166.002 136.623 165.827C137.252 165.303 137.899 164.901 138.563 164.622C139.262 164.342 139.926 164.202 140.555 164.202C142.092 164.202 143.333 164.901 144.276 166.299L153.292 179.665C153.921 180.609 154.201 181.605 154.131 182.653C154.096 183.667 153.607 184.628 152.663 185.536L149.099 188.996C147.037 190.953 145.989 192.98 145.954 195.076C145.954 197.173 146.53 199.077 147.684 200.79C148.907 202.642 150.671 204.896 152.978 207.552C155.319 210.173 157.66 212.636 160.002 214.943C161.749 216.655 163.566 218.385 165.453 220.132C167.34 221.844 169.105 223.399 170.747 224.797C172.39 226.195 173.77 227.278 174.888 228.047C176.636 229.2 178.54 229.759 180.602 229.724C182.699 229.689 184.743 228.641 186.735 226.579L190.142 223.067C191.05 222.124 192.029 221.635 193.077 221.6C194.126 221.53 195.121 221.827 196.065 222.491L208.907 230.93C209.676 231.419 210.218 231.996 210.532 232.66C210.847 233.289 211.004 233.953 211.004 234.652C211.004 235.979 210.462 237.307 209.379 238.635C209.204 238.845 209.03 239.055 208.855 239.264C208.715 239.439 208.558 239.614 208.383 239.789C206.846 241.606 204.959 242.969 202.722 243.877C200.486 244.821 198.074 245.31 195.488 245.345Z" fill="#1A1A1A"/>
<path d="M135.94 315.535L143.182 274.35H134.794L124.596 280.052L123.389 287.414L133.165 281.832H133.647L127.673 315.535H135.94ZM170.066 274.35C166.626 278.674 163.146 283.13 159.626 287.716C156.106 292.302 152.867 296.798 149.91 301.203L148.854 307.781H168.436L167.078 315.535H174.682L176.04 307.781H182.074L183.16 301.384H177.156L181.833 274.35H170.066ZM157.514 301.384C157.534 301.364 157.544 301.314 157.544 301.233C157.544 301.153 157.544 301.093 157.544 301.052C159.073 298.86 160.692 296.607 162.402 294.294C164.132 291.96 165.882 289.647 167.652 287.354C169.442 285.061 171.162 282.858 172.811 280.746H173.294L169.553 301.384H157.514ZM191.941 274.35L190.885 280.867H210.316L210.255 281.35L188.139 315.535H197.191L219.186 280.656L220.182 274.35H191.941Z" fill="#1A1A1A"/>
</g>
<defs>
<clipPath id="clip0_30_125">
<rect width="342.248" height="430.772" fill="white"/>
</clipPath>
</defs>
</svg>
