<svg width="61" height="59" viewBox="0 0 61 59" fill="none" xmlns="http://www.w3.org/2000/svg">
<g clip-path="url(#clip0_32_2)">
<path fill-rule="evenodd" clip-rule="evenodd" d="M30.0481 0.293457C13.4848 0.293457 0.0692139 13.7091 0.0692139 30.2724C0.0692139 43.5381 8.65061 54.7428 20.5673 58.715C22.0662 58.9773 22.6283 58.0779 22.6283 57.2909C22.6283 56.579 22.5909 54.2181 22.5909 51.7074C15.0587 53.094 13.11 49.8712 12.5104 48.1849C12.1732 47.323 10.7117 44.6623 9.43761 43.9503C8.38831 43.3883 6.88941 42.0017 9.40021 41.9642C11.761 41.9268 13.4473 44.1377 14.0094 45.0371C16.7075 49.5714 21.017 48.2973 22.7408 47.5104C23.0031 45.5617 23.79 44.2501 24.6519 43.5007C17.9816 42.7512 11.0115 40.1655 11.0115 28.6986C11.0115 25.4384 12.1732 22.7402 14.0844 20.6417C13.7846 19.8922 12.7353 16.8194 14.3841 12.6973C14.3841 12.6973 16.8948 11.9104 22.6283 15.7701C25.0267 15.0956 27.5748 14.7584 30.1231 14.7584C32.6713 14.7584 35.2195 15.0956 37.6178 15.7701C43.3513 11.8729 45.862 12.6973 45.862 12.6973C47.5109 16.8194 46.4616 19.8922 46.1618 20.6417C48.073 22.7402 49.2347 25.4009 49.2347 28.6986C49.2347 40.203 42.2271 42.7512 35.5568 43.5007C36.6435 44.4375 37.5803 46.2363 37.5803 49.0468C37.5803 53.0564 37.5428 56.2792 37.5428 57.2909C37.5428 58.0779 38.1049 59.0148 39.6039 58.715C51.4456 54.7428 60.027 43.5007 60.027 30.2724C60.027 13.7091 46.6115 0.293457 30.0481 0.293457Z" fill="#333333"/>
</g>
<defs>
<clipPath id="clip0_32_2">
<rect width="61" height="59" fill="white"/>
</clipPath>
</defs>
</svg>
