<svg width="199" height="27" viewBox="0 0 199 27" fill="none" xmlns="http://www.w3.org/2000/svg">
<g clip-path="url(#clip0_32_4)">
<path fill-rule="evenodd" clip-rule="evenodd" d="M46.0362 26.1247V17.6496H42.9615V15.8221H51.2179V17.6496H48.1426V26.1247H46.0362ZM54.517 20.9444C54.517 22.0884 54.7981 22.9948 55.3124 23.621C55.8208 24.2449 56.5065 24.5296 57.4195 24.5296C58.3304 24.5296 59.0073 24.2449 59.5194 23.621C60.0358 22.9948 60.3191 22.0884 60.3191 20.9444C60.3191 19.8134 60.0358 18.9556 59.5194 18.3273C59.0073 17.7027 58.3304 17.3685 57.4195 17.3685C56.5065 17.3685 55.8208 17.7027 55.3124 18.3273C54.7981 18.9556 54.517 19.8134 54.517 20.9444ZM52.351 20.9444C52.351 19.297 52.805 17.9859 53.7195 17.0177C54.6303 16.0509 55.8876 15.541 57.4195 15.541C58.9565 15.541 60.1455 16.0509 61.0593 17.0177C61.973 17.9859 62.4248 19.297 62.4248 20.9444C62.4248 22.599 61.973 23.9689 61.0593 24.9284C60.1455 25.8973 58.9565 26.4138 57.4195 26.4138C55.8876 26.4138 54.6303 25.8973 53.7195 24.9284C52.805 23.9689 52.351 22.599 52.351 20.9444ZM66.6283 20.3168H69.1385C69.6513 20.3168 70.0479 20.2042 70.3363 19.9819C70.5608 19.7517 70.7292 19.4147 70.7292 18.9556C70.7292 18.5053 70.5608 18.1639 70.3363 17.9271C70.1046 17.7027 69.7094 17.593 69.251 17.593H66.6283V20.3168ZM64.5261 26.1247V15.8221H69.5365C70.6166 15.8221 71.47 16.0509 71.9865 16.5129C72.5545 17.0177 72.8399 17.76 72.8399 18.7341C72.8399 19.3551 72.6649 19.8701 72.4412 20.3168C72.1506 20.7235 71.7577 21.0046 71.2986 21.1768C71.7577 21.3438 72.041 21.5705 72.2668 21.9162C72.4412 22.2009 72.5546 22.7123 72.5546 23.3943L72.6104 24.6502C72.6104 25.269 72.7855 25.6685 73.0077 25.7826V26.1247H70.6725C70.6166 25.9584 70.5606 25.7826 70.5047 25.5574C70.5047 25.3322 70.4473 25.0991 70.4473 24.8165V23.7364C70.3878 23.1118 70.2745 22.652 70.0478 22.4297C69.8241 22.2009 69.4791 22.0884 68.9147 22.0884H66.6283V26.1247H64.5261ZM84.1027 22.5409C84.0446 23.7364 83.5957 24.6502 82.7408 25.3322C81.9426 26.0717 80.8596 26.4138 79.5485 26.4138C78.0108 26.4138 76.8218 25.8973 75.9727 24.9865C75.1737 24.0226 74.7139 22.652 74.7139 20.9444C74.7139 19.2418 75.1737 17.8777 76.0235 16.9698C76.8784 16.0001 78.1278 15.541 79.7163 15.541C81.0324 15.541 82.1162 15.8802 82.8534 16.5129C83.5957 17.1383 84.0446 18.0455 84.1027 19.2418H81.9992C81.9426 18.62 81.6564 18.2256 81.3135 17.8777C80.9191 17.593 80.4063 17.4266 79.7163 17.4266C78.8163 17.4266 78.074 17.7027 77.6186 18.3273C77.1029 18.9556 76.8784 19.8134 76.8784 20.9444C76.8784 22.0884 77.1029 22.9367 77.6186 23.5643C78.074 24.1926 78.7568 24.4737 79.6705 24.4737C80.2967 24.4737 80.8596 24.3066 81.2533 23.9689C81.6564 23.6783 81.9427 23.1663 82.0574 22.5409H84.1027ZM86.1518 15.7684H88.3221V22.2547C88.3221 23.0551 88.4267 23.621 88.7724 23.9689C89.0564 24.3647 89.5678 24.5296 90.2498 24.5296C90.9943 24.5296 91.5035 24.3647 91.7868 23.9689C92.1311 23.621 92.301 23.0551 92.301 22.2547V15.7684H94.4024V22.4871C94.4024 23.7364 94.0646 24.7061 93.323 25.386C92.6395 26.0717 91.6176 26.4138 90.3094 26.4138C88.9409 26.4138 87.9168 26.0717 87.2398 25.386C86.491 24.7061 86.1518 23.7364 86.1518 22.4871V15.7684ZM100.497 17.8777L99.0191 22.2547H101.917L100.497 17.8777ZM99.2493 15.8221H101.691L105.389 26.1247H103.175L102.485 23.9689H98.5048L97.8184 26.1247H95.5994L99.2493 15.8221ZM108.518 26.1247V17.6496H105.444V15.8221H113.641V17.6496H110.626V26.1247H108.518ZM116.994 20.9444C116.994 22.0884 117.227 22.9948 117.742 23.621C118.245 24.2449 118.932 24.5296 119.839 24.5296C120.757 24.5296 121.495 24.2449 122.005 23.621C122.518 22.9948 122.741 22.0884 122.741 20.9444C122.741 19.8134 122.518 18.9556 122.005 18.3273C121.495 17.7027 120.757 17.3685 119.839 17.3685C118.932 17.3685 118.245 17.7027 117.742 18.3273C117.227 18.9556 116.994 19.8134 116.994 20.9444ZM114.833 20.9444C114.833 19.297 115.287 17.9859 116.2 17.0177C117.109 16.0509 118.303 15.541 119.839 15.541C121.379 15.541 122.633 16.0509 123.541 17.0177C124.454 17.9859 124.908 19.297 124.908 20.9444C124.908 22.599 124.454 23.9689 123.541 24.9284C122.633 25.8973 121.379 26.4138 119.839 26.4138C118.303 26.4138 117.109 25.8973 116.2 24.9284C115.287 23.9689 114.833 22.599 114.833 20.9444ZM134.382 24.2449H136.09C137.057 24.2449 137.793 23.9689 138.196 23.4539C138.647 22.9367 138.876 22.1436 138.876 20.9444C138.876 19.8134 138.647 18.9556 138.252 18.445C137.856 17.8777 137.229 17.6496 136.319 17.6496H134.382V24.2449ZM132.332 26.1247V15.8221H136.319C137.909 15.8221 139.101 16.226 139.842 17.0758C140.647 17.9271 141.034 19.2418 141.034 20.9444C141.034 21.9162 140.871 22.7123 140.585 23.4539C140.296 24.1926 139.903 24.7606 139.331 25.1659C138.934 25.5015 138.477 25.7325 137.968 25.8973C137.454 26.0157 136.712 26.1247 135.752 26.1247H132.332ZM143.202 15.8221H145.308V26.1247H143.202V15.8221ZM155.632 26.1247V17.6496H152.554V15.8221H160.752V17.6496H157.726V26.1247H155.632ZM162.395 26.1247V15.8221H169.851V17.593H164.503V19.8134H169.396V21.5705H164.503V24.1926H170.137V26.1247H162.395ZM172.133 26.1247V15.8221H174.287V24.1926H179.298V26.1247H172.133ZM180.888 26.1247V15.8221H182.995V24.1926H188.002V26.1247H180.888ZM193.412 17.8777L191.989 22.2547H194.837L193.412 17.8777ZM192.162 15.8221H194.603L198.31 26.1247H196.084L195.402 23.9689H191.423L190.741 26.1247H188.517L192.162 15.8221Z" fill="#333333"/>
<path fill-rule="evenodd" clip-rule="evenodd" d="M42.9615 7.32224V0.892588H44.3859V7.32224C44.3859 8.29265 44.614 8.97542 45.0134 9.43302C45.4689 9.94001 46.0899 10.1725 47.0051 10.1725C47.9094 10.1725 48.5392 9.94001 48.9939 9.43302C49.4515 8.97542 49.6236 8.29265 49.6236 7.32224V0.892588H51.0422V7.32224C51.0422 8.68488 50.7008 9.71048 49.9643 10.4521C49.2844 11.1334 48.1941 11.4748 46.8322 11.4748C45.5836 11.4748 44.614 11.1334 43.929 10.4521C43.3043 9.77368 42.9615 8.68488 42.9615 7.32224ZM53.6069 11.1944V0.892588H55.0836L59.924 8.40814C60.0366 8.57302 60.0918 8.68488 60.2051 8.86937C60.2632 8.97542 60.3191 9.14829 60.3736 9.25579V0.892588H61.742V11.1944H60.2051L55.3131 3.6273C55.202 3.51689 55.1424 3.39559 55.0836 3.28519C55.0276 3.16752 54.9717 2.999 54.9165 2.88206V11.1944H53.6069ZM64.3569 0.892588H65.7239V11.1944H64.3569V0.892588ZM70.9601 11.1944L67.2601 0.892588H68.7361L71.6981 9.54415L74.5462 0.892588H76.0243L72.3845 11.1944H70.9601ZM77.5002 11.1944V0.892588H84.8472V2.20728H78.9268V5.27611H84.3918V6.46878H78.9268V9.94001H84.9576V11.1944H77.5002ZM88.4274 2.14482V5.61241H90.8215C91.6735 5.61241 92.3019 5.44608 92.6404 5.21873C92.9883 4.93182 93.2097 4.47785 93.2097 3.79944C93.2097 3.16752 93.0384 2.7702 92.6992 2.48838C92.3585 2.25958 91.7309 2.14482 90.8215 2.14482H88.4274ZM87.0677 0.892588H91.0495C91.6735 0.892588 92.1906 0.952875 92.4638 1.0059C92.8102 1.05965 93.0383 1.17514 93.323 1.2899C93.724 1.52379 94.0646 1.85936 94.2934 2.25958C94.5237 2.71282 94.6341 3.16752 94.6341 3.79944C94.6341 4.30934 94.5237 4.81706 94.2934 5.21873C94.0646 5.55866 93.6695 5.90295 93.2097 6.13175C93.6092 6.24434 93.8947 6.41358 94.0646 6.69322C94.2368 6.92783 94.3479 7.38398 94.4024 8.00792L94.5238 9.71048C94.5238 10.1144 94.5782 10.3373 94.6341 10.5669C94.7438 10.7426 94.8077 10.8545 94.974 10.9141V11.1944H93.3862C93.2097 10.97 93.1509 10.5131 93.0964 9.82815V9.77368L92.9882 8.46407C92.9882 7.77621 92.8102 7.32224 92.5872 7.09998C92.3018 6.92784 91.6735 6.81452 90.7038 6.81452H88.4274V11.1944H87.0677V0.892588ZM96.511 7.83432H97.8184C97.8794 8.57302 98.1104 9.14829 98.5607 9.59935C99.0735 10.0519 99.6997 10.2843 100.498 10.2843C101.297 10.2843 101.917 10.1144 102.374 9.77368C102.878 9.43302 103.111 8.97542 103.111 8.40814C103.111 7.60697 102.196 6.98449 100.498 6.58427C100.376 6.58427 100.322 6.58427 100.268 6.52979C98.8469 6.18696 97.9332 5.8492 97.4821 5.44608C97.0238 5.04731 96.7921 4.42701 96.7921 3.6825C96.7921 2.7702 97.1349 2.03441 97.8184 1.46568C98.5055 0.952876 99.4149 0.660156 100.498 0.660156C101.63 0.660156 102.538 0.952875 103.175 1.52379C103.853 2.08671 104.195 2.9409 104.195 3.9113L102.828 3.97014C102.771 3.22417 102.538 2.71282 102.145 2.37289C101.691 1.9734 101.122 1.80779 100.435 1.80779C99.6997 1.80779 99.1898 1.9734 98.7874 2.25958C98.3305 2.54358 98.1685 2.9409 98.1685 3.4537C98.1685 4.25196 99.0198 4.81706 100.722 5.21873C100.951 5.27611 101.122 5.33204 101.297 5.3916H101.409C102.538 5.67343 103.287 5.95888 103.621 6.24434C103.905 6.52979 104.136 6.81452 104.252 7.09998C104.418 7.43991 104.481 7.83432 104.481 8.23454C104.481 9.20276 104.136 9.99449 103.398 10.6213C102.712 11.1944 101.749 11.4748 100.554 11.4748C99.3038 11.4748 98.3305 11.1944 97.5932 10.5131C96.9156 9.88626 96.5691 8.97542 96.511 7.83432ZM106.637 0.892588H108.064V11.1944H106.637V0.892588ZM114.493 2.08671H112.104V9.94001H114.493C115.517 9.94001 116.31 9.59935 116.824 8.97542C117.341 8.29265 117.623 7.26486 117.623 5.95888C117.623 4.70375 117.341 3.79944 116.824 3.11159C116.256 2.43463 115.517 2.08671 114.493 2.08671ZM110.681 11.1944V0.892588H114.605C116.026 0.892588 117.109 1.34874 117.911 2.20728C118.64 3.05711 119.046 4.30934 119.046 5.90295C119.046 7.60697 118.64 8.86937 117.851 9.82815C117.049 10.7426 115.971 11.1944 114.551 11.1944H110.681ZM122.912 6.92783H126.105L124.508 2.37289L122.912 6.92783ZM119.957 11.1944L123.772 0.892588H125.308L129.123 11.1944H127.638L126.557 8.1205H122.456L121.379 11.1944H119.957ZM134.41 2.08671H132.023V9.94001H134.41C135.435 9.94001 136.23 9.59935 136.744 8.97542C137.256 8.29265 137.54 7.26486 137.54 5.95888C137.54 4.70375 137.256 3.79944 136.744 3.11159C136.174 2.43463 135.435 2.08671 134.41 2.08671ZM130.596 11.1944V0.892588H134.527C135.944 0.892588 137.027 1.34874 137.827 2.20728C138.567 3.05711 138.96 4.30934 138.96 5.90295C138.96 7.60697 138.567 8.86937 137.767 9.82815C136.972 10.7426 135.892 11.1944 134.466 11.1944H130.596Z" fill="#333333"/>
<path fill-rule="evenodd" clip-rule="evenodd" d="M25.6016 25.7647H18.9431L29.6205 2.30939H36.2819L25.6016 25.7647ZM36.2819 25.7647H27.2737L36.2819 6.56508V25.7647ZM10.5197 25.7647L21.144 2.30939H27.8976L17.165 25.7647H10.5197ZM2.03733 25.7647L12.7183 2.30939H19.3768L8.69869 25.7647H2.03733ZM2.03733 2.30939H11.0448L2.03733 21.5104V2.30939ZM0.691406 27.0009H37.6416V1.11963H0.691406V27.0009Z" fill="#333333"/>
</g>
<defs>
<clipPath id="clip0_32_4">
<rect width="199" height="27" fill="white"/>
</clipPath>
</defs>
</svg>
